<svg width="40" height="40" viewBox="0 0 40 40" fill="none" xmlns="http://www.w3.org/2000/svg">
<path d="M20.0002 3.33325C16.7038 3.33325 13.4815 4.31073 10.7407 6.14209C7.99985 7.97345 5.86364 10.5764 4.60218 13.6219C3.34072 16.6673 3.01066 20.0184 3.65375 23.2514C4.29684 26.4844 5.88418 29.4542 8.21506 31.785C10.5459 34.1159 13.5156 35.7033 16.7487 36.3463C19.9817 36.9894 23.3328 36.6594 26.3782 35.3979C29.4237 34.1365 32.0266 32.0002 33.858 29.2594C35.6894 26.5186 36.6668 23.2963 36.6668 19.9999C36.662 15.5811 34.9045 11.3447 31.7799 8.22017C28.6554 5.09561 24.419 3.3381 20.0002 3.33325ZM20.0002 33.3333C17.3631 33.3333 14.7852 32.5513 12.5926 31.0862C10.3999 29.6211 8.69095 27.5387 7.68178 25.1024C6.67261 22.666 6.40856 19.9851 6.92303 17.3987C7.4375 14.8123 8.70738 12.4365 10.5721 10.5718C12.4368 8.70713 14.8126 7.43725 17.399 6.92278C19.9854 6.40831 22.6663 6.67236 25.1026 7.68153C27.539 8.69069 29.6213 10.3997 31.0864 12.5923C32.5515 14.785 33.3335 17.3628 33.3335 19.9999C33.3295 23.5349 31.9235 26.924 29.4239 29.4236C26.9242 31.9232 23.5352 33.3293 20.0002 33.3333Z" fill="#1A171E"/>
<path d="M23.3335 21.6667C23.3335 22.5507 22.9823 23.3986 22.3572 24.0237C21.7321 24.6488 20.8842 25 20.0002 25C19.1161 25 18.2683 24.6488 17.6431 24.0237C17.018 23.3986 16.6668 22.5507 16.6668 21.6667V20H13.3335V21.6667C13.3335 23.4348 14.0359 25.1305 15.2861 26.3807C16.5364 27.631 18.2321 28.3333 20.0002 28.3333C21.7683 28.3333 23.464 27.631 24.7142 26.3807C25.9645 25.1305 26.6668 23.4348 26.6668 21.6667V20H23.3335V21.6667Z" fill="#1A171E"/>
<path d="M16.6668 13.3333H13.3335V16.6666H16.6668V13.3333Z" fill="#1A171E"/>
<path d="M26.6668 13.3333H23.3335V16.6666H26.6668V13.3333Z" fill="#1A171E"/>
</svg>
