<svg width="18" height="17" viewBox="0 0 18 17" fill="none" xmlns="http://www.w3.org/2000/svg">
<path fill-rule="evenodd" clip-rule="evenodd" d="M3.78707 10.1753C3.82491 10.188 3.86311 10.1971 3.90127 10.2026C3.94288 10.3004 3.99665 10.4269 4.05937 10.5749C4.21246 10.9359 4.41872 11.4242 4.63164 11.9336C5.06583 12.9725 5.50381 14.0434 5.60054 14.3499C5.72028 14.7289 5.84686 14.9865 5.98504 15.1624C6.05648 15.2533 6.13912 15.3328 6.23581 15.3929C6.28448 15.4231 6.3359 15.448 6.38957 15.4665C6.39193 15.4673 6.39429 15.4681 6.39665 15.4689C6.67331 15.5733 6.92554 15.5298 7.08346 15.4766C7.16796 15.4482 7.23633 15.4138 7.28479 15.3859C7.30949 15.3717 7.33036 15.3585 7.34701 15.3473L7.35094 15.3446L9.79426 13.8209L12.6165 15.9846C12.6582 16.0166 12.7035 16.0433 12.7517 16.0643C13.0907 16.2123 13.419 16.2639 13.7279 16.2217C14.0362 16.1796 14.281 16.0501 14.4632 15.9043C14.6417 15.7615 14.7627 15.6016 14.838 15.4828C14.8765 15.4221 14.9054 15.3684 14.9257 15.3273C14.936 15.3067 14.9442 15.2889 14.9505 15.2746L14.9587 15.2557L14.9618 15.2483L14.9631 15.2452L14.9636 15.2437L14.9642 15.2424C14.979 15.2053 14.9904 15.1669 14.9982 15.1278L17.5746 2.13796C17.5829 2.09641 17.587 2.05416 17.587 2.01181C17.587 1.63141 17.4437 1.26969 17.1067 1.0502C16.8186 0.8626 16.4977 0.854525 16.2949 0.869918C16.0762 0.886522 15.8741 0.940526 15.7385 0.98368C15.668 1.00614 15.6088 1.02781 15.5662 1.04434C15.5447 1.05264 15.5272 1.05977 15.5141 1.06521L15.5043 1.06935L1.05495 6.7376L1.05307 6.73827C1.04386 6.74162 1.03204 6.74603 1.01799 6.7515C0.990015 6.76239 0.952527 6.77774 0.908738 6.79759C0.823336 6.8363 0.703531 6.89678 0.58059 6.98097C0.384182 7.11547 -0.0675204 7.48385 0.00854082 8.09186C0.0692203 8.57692 0.401524 8.87482 0.603985 9.01807C0.715155 9.09674 0.820769 9.15299 0.897686 9.18961C0.933369 9.20659 1.00745 9.23669 1.0396 9.24975L1.04771 9.25305L3.78707 10.1753ZM16.0099 2.26342L16.0079 2.26429C16.0007 2.26742 15.9935 2.27042 15.9862 2.27328L1.51932 7.94842C1.51177 7.95138 1.50416 7.9542 1.4965 7.95688L1.48844 7.95993C1.47919 7.96354 1.46361 7.96986 1.44405 7.97872C1.43296 7.98375 1.42139 7.98923 1.40959 7.99512C1.4258 8.00425 1.44131 8.01218 1.4551 8.01874C1.46834 8.02505 1.47843 8.02935 1.48396 8.03162L4.20082 8.94627C4.25054 8.96301 4.2969 8.9852 4.33945 9.01193L13.3104 3.76043L13.3187 3.75546C13.3253 3.75161 13.3339 3.74664 13.3442 3.74083C13.3646 3.72928 13.3926 3.71392 13.426 3.69694C13.4883 3.66525 13.5879 3.61821 13.7001 3.58353C13.7782 3.55938 14.0086 3.49135 14.2577 3.57124C14.4114 3.62054 14.5705 3.72654 14.674 3.9061C14.7255 3.99531 14.7529 4.08493 14.7661 4.16696C14.8014 4.29619 14.7958 4.4238 14.7682 4.53397C14.7088 4.77128 14.5421 4.9564 14.3903 5.09799C14.2604 5.21938 12.5785 6.84108 10.9194 8.44197C10.092 9.24031 9.27305 10.0308 8.66094 10.6216L8.2589 11.0098L13.3353 14.9017C13.4517 14.9434 13.5205 14.9412 13.5524 14.9369C13.5903 14.9317 13.6214 14.9171 13.6531 14.8917C13.6886 14.8633 13.7196 14.825 13.7428 14.7885L13.7437 14.7869L16.2426 2.18834C16.2055 2.19725 16.168 2.20787 16.1319 2.21937C16.0909 2.2324 16.0572 2.24481 16.0348 2.25348C16.0237 2.25778 16.0157 2.26103 16.0114 2.26283L16.0099 2.26342ZM8.69501 12.9782L7.68225 12.2017L7.43684 13.7628L8.69501 12.9782ZM6.75316 10.6609L7.7603 9.68865C8.37246 9.09773 9.19148 8.3072 10.019 7.50877L10.8597 6.69765L5.22302 9.99733L5.25327 10.0686C5.40689 10.431 5.61408 10.9214 5.82812 11.4336C5.98816 11.8165 6.15552 12.2197 6.30796 12.593L6.55265 11.0365C6.57624 10.8864 6.64955 10.7565 6.75316 10.6609Z" fill="#6B22E2"/>
</svg>
