<svg width="19" height="15" viewBox="0 0 19 15" fill="none" xmlns="http://www.w3.org/2000/svg">
<path d="M4.57475 2.90024C4.37382 2.79205 4.13079 2.79745 3.93487 2.91448C3.73894 3.0315 3.61896 3.24292 3.61896 3.47113V11.684C3.61896 12.0421 3.90926 12.3324 4.26735 12.3324C4.62545 12.3324 4.91574 12.0421 4.91574 11.684V4.55667L9.57932 7.06783C9.77123 7.17116 10.0022 7.17116 10.1941 7.06783L14.8577 4.55667V11.684C14.8577 12.0421 15.148 12.3324 15.5061 12.3324C15.8642 12.3324 16.1545 12.0421 16.1545 11.684V3.47113C16.1545 3.24292 16.0345 3.0315 15.8386 2.91448C15.6426 2.79745 15.3996 2.79205 15.1987 2.90024L9.88672 5.76053L4.57475 2.90024Z" fill="#6B22E2"/>
<path fill-rule="evenodd" clip-rule="evenodd" d="M14.4778 0.20484C11.4232 -0.0682801 8.35027 -0.0682801 5.29563 0.20484L3.98386 0.322128C2.57676 0.447939 1.43986 1.5229 1.23549 2.92075C0.804965 5.86557 0.804965 8.85735 1.23549 11.8022C1.43986 13.2 2.57676 14.275 3.98386 14.4008L5.29563 14.5181C8.35027 14.7912 11.4232 14.7912 14.4778 14.5181L15.7896 14.4008C17.1967 14.275 18.3336 13.2 18.538 11.8022C18.9685 8.85735 18.9685 5.86557 18.538 2.92075C18.3336 1.5229 17.1967 0.447939 15.7896 0.322128L14.4778 0.20484ZM5.41112 1.49646C8.38892 1.23021 11.3845 1.23021 14.3623 1.49646L15.6741 1.61375C16.4834 1.68611 17.1373 2.30437 17.2548 3.10835C17.6672 5.92876 17.6672 8.79416 17.2548 11.6146C17.1373 12.4185 16.4834 13.0368 15.6741 13.1092L14.3623 13.2265C11.3845 13.4927 8.38892 13.4927 5.41112 13.2265L4.09935 13.1092C3.29006 13.0368 2.63617 12.4185 2.51863 11.6146C2.10629 8.79416 2.10629 5.92876 2.51863 3.10835C2.63617 2.30437 3.29006 1.68611 4.09935 1.61375L5.41112 1.49646Z" fill="#6B22E2"/>
</svg>
