<svg width="17" height="17" viewBox="0 0 17 17" fill="none" xmlns="http://www.w3.org/2000/svg">
<path d="M12.2078 3.85364C12.2078 3.37618 12.5949 2.98913 13.0723 2.98913C13.5498 2.98913 13.9369 3.37618 13.9369 3.85364C13.9369 4.3311 13.5498 4.71816 13.0723 4.71816C12.5949 4.71816 12.2078 4.3311 12.2078 3.85364Z" fill="#6B22E2"/>
<path fill-rule="evenodd" clip-rule="evenodd" d="M8.74976 4.06977C6.48182 4.06977 4.6433 5.9083 4.6433 8.17623C4.6433 10.4442 6.48182 12.2827 8.74976 12.2827C11.0177 12.2827 12.8562 10.4442 12.8562 8.17623C12.8562 5.9083 11.0177 4.06977 8.74976 4.06977ZM5.94007 8.17623C5.94007 6.62449 7.19801 5.36655 8.74976 5.36655C10.3015 5.36655 11.5594 6.62449 11.5594 8.17623C11.5594 9.72798 10.3015 10.9859 8.74976 10.9859C7.19801 10.9859 5.94007 9.72798 5.94007 8.17623Z" fill="#6B22E2"/>
<path fill-rule="evenodd" clip-rule="evenodd" d="M13.2956 0.251212C10.2987 -0.0837373 7.20084 -0.0837373 4.20392 0.251212C2.46447 0.445622 1.0602 1.81589 0.855696 3.5644C0.49732 6.62851 0.49732 9.72395 0.855696 12.7881C1.0602 14.5366 2.46447 15.9068 4.20392 16.1013C7.20084 16.4362 10.2987 16.4362 13.2956 16.1013C15.0351 15.9068 16.4393 14.5366 16.6438 12.7881C17.0022 9.72395 17.0022 6.62851 16.6438 3.5644C16.4393 1.81589 15.0351 0.445622 13.2956 0.251212ZM4.34796 1.53996C7.24915 1.21571 10.2504 1.21571 13.1516 1.53996C14.3015 1.66848 15.2226 2.57589 15.3558 3.71505C15.7025 6.67907 15.7025 9.6734 15.3558 12.6374C15.2226 13.7766 14.3015 14.684 13.1516 14.8125C10.2504 15.1367 7.24915 15.1367 4.34796 14.8125C3.19806 14.684 2.27693 13.7766 2.14369 12.6374C1.79702 9.6734 1.79702 6.67907 2.14369 3.71505C2.27693 2.57589 3.19806 1.66848 4.34796 1.53996Z" fill="#6B22E2"/>
</svg>
