<svg width="38" height="38" viewBox="0 0 38 38" fill="none" xmlns="http://www.w3.org/2000/svg">
<path d="M19.2458 33.525H18.0042V34.7667H19.2458V33.525Z" fill="#4C4CE6"/>
<path d="M3.10417 13.6583H5.38868L9.57263 16.647C9.67395 16.7193 9.79468 16.7595 9.91914 16.7624C10.0436 16.7652 10.166 16.7306 10.2705 16.663C10.3751 16.5953 10.4568 16.4979 10.5053 16.3832C10.5537 16.2685 10.5665 16.1419 10.5421 16.0198L10.0698 13.6583H14.2792C15.1021 13.6574 15.8911 13.33 16.4731 12.7481C17.055 12.1661 17.3824 11.3771 17.3833 10.5542V3.10417C17.3824 2.28119 17.055 1.49219 16.4731 0.910255C15.8911 0.32832 15.1021 0.000965301 14.2792 0H3.10417C2.28119 0.000965301 1.49219 0.32832 0.910256 0.910255C0.328321 1.49219 0.000965301 2.28119 0 3.10417V10.5542C0.000965301 11.3771 0.328321 12.1661 0.910256 12.7481C1.49219 13.33 2.28119 13.6574 3.10417 13.6583ZM1.24167 3.10417C1.24222 2.61037 1.43863 2.13696 1.78779 1.78779C2.13696 1.43863 2.61037 1.24222 3.10417 1.24167H14.2792C14.773 1.24222 15.2464 1.43863 15.5955 1.78779C15.9447 2.13696 16.1411 2.61037 16.1417 3.10417V10.5542C16.1411 11.048 15.9447 11.5214 15.5955 11.8705C15.2464 12.2197 14.773 12.4161 14.2792 12.4167H9.3125C9.22064 12.4167 9.12993 12.4371 9.0469 12.4764C8.96388 12.5157 8.89061 12.5729 8.83238 12.6439C8.77415 12.715 8.73241 12.7981 8.71017 12.8872C8.68793 12.9763 8.68575 13.0693 8.70377 13.1593L9.01667 14.7238L5.9482 12.5321C5.84293 12.457 5.71683 12.4166 5.5875 12.4167H3.10417C2.61037 12.4161 2.13696 12.2197 1.78779 11.8705C1.43863 11.5214 1.24222 11.048 1.24167 10.5542V3.10417Z" fill="#4C4CE6"/>
<path d="M4.34583 6.20828V9.93328C4.34583 10.0979 4.41124 10.2558 4.52767 10.3723C4.6441 10.4887 4.80201 10.5541 4.96666 10.5541H9.93333C10.098 10.5541 10.2559 10.4887 10.3723 10.3723C10.4888 10.2558 10.5542 10.0979 10.5542 9.93328V9.6962L12.139 10.4886C12.2337 10.536 12.3388 10.5583 12.4446 10.5535C12.5503 10.5488 12.653 10.5171 12.7431 10.4614C12.8331 10.4058 12.9074 10.3281 12.9589 10.2356C13.0105 10.1432 13.0375 10.0391 13.0375 9.93328V6.20828C13.0375 6.10245 13.0105 5.99837 12.9589 5.90593C12.9074 5.81349 12.8331 5.73576 12.7431 5.68012C12.653 5.62448 12.5503 5.59278 12.4446 5.58802C12.3388 5.58326 12.2337 5.60561 12.139 5.65295L10.5542 6.44536V6.20828C10.5542 6.19796 10.5488 6.18935 10.5483 6.17918C10.75 5.97621 10.9097 5.73534 11.0179 5.47043C11.1262 5.20552 11.1811 4.92181 11.1792 4.63563C11.1774 4.34944 11.119 4.06644 11.0074 3.80292C10.8958 3.5394 10.7331 3.30057 10.5288 3.10017C10.3245 2.89977 10.0826 2.74176 9.81693 2.63525C9.5513 2.52874 9.26722 2.47583 8.98106 2.47955C8.69489 2.48328 8.41229 2.54358 8.14953 2.65698C7.88676 2.77037 7.64902 2.93462 7.45 3.14028C7.25097 2.93462 7.01323 2.77037 6.75047 2.65698C6.4877 2.54358 6.2051 2.48328 5.91894 2.47955C5.63277 2.47583 5.3487 2.52874 5.08307 2.63525C4.81744 2.74176 4.5755 2.89977 4.37119 3.10017C4.16687 3.30057 4.00422 3.5394 3.89259 3.80292C3.78096 4.06644 3.72255 4.34944 3.72075 4.63563C3.71894 4.92181 3.77376 5.20552 3.88205 5.47043C3.99034 5.73534 4.14996 5.97621 4.35173 6.17918C4.35119 6.18935 4.34583 6.19796 4.34583 6.20828ZM9.3125 9.31245H5.5875V6.82911H9.3125V9.31245ZM11.7958 7.21287V8.9287L10.5542 8.30786V7.8337L11.7958 7.21287ZM9.00208 3.72495C9.18626 3.72495 9.36631 3.77956 9.51946 3.88189C9.6726 3.98422 9.79196 4.12966 9.86244 4.29982C9.93293 4.46999 9.95137 4.65723 9.91544 4.83788C9.8795 5.01852 9.79081 5.18445 9.66057 5.31469C9.53034 5.44493 9.3644 5.53362 9.18376 5.56955C9.00311 5.60549 8.81587 5.58705 8.64571 5.51656C8.47554 5.44608 8.3301 5.32672 8.22777 5.17357C8.12545 5.02043 8.07083 4.84038 8.07083 4.6562C8.0711 4.4093 8.1693 4.17259 8.34388 3.998C8.51847 3.82341 8.75518 3.72522 9.00208 3.72495ZM5.89791 3.72495C6.0821 3.72495 6.26215 3.77956 6.41529 3.88189C6.56843 3.98422 6.68779 4.12966 6.75828 4.29982C6.82876 4.46999 6.8472 4.65723 6.81127 4.83788C6.77534 5.01852 6.68665 5.18445 6.55641 5.31469C6.42617 5.44493 6.26024 5.53362 6.07959 5.56955C5.89895 5.60549 5.7117 5.58705 5.54154 5.51656C5.37138 5.44608 5.22593 5.32672 5.12361 5.17357C5.02128 5.02043 4.96666 4.84038 4.96666 4.6562C4.96693 4.4093 5.06513 4.17259 5.23972 3.998C5.4143 3.82341 5.65101 3.72522 5.89791 3.72495Z" fill="#4C4CE6"/>
<path d="M34.1458 4.96661H28.4955C28.3515 4.26603 27.9704 3.63651 27.4164 3.18416C26.8624 2.7318 26.1694 2.48427 25.4542 2.48328H18.625V3.72494H25.4542C25.8381 3.72612 26.2122 3.8461 26.5252 4.06842C26.8382 4.29074 27.0747 4.6045 27.2023 4.96661H21.7292C20.9062 4.96758 20.1172 5.29493 19.5352 5.87687C18.9533 6.4588 18.6259 7.2478 18.625 8.07078V15.5208C18.6259 16.3438 18.9533 17.1328 19.5352 17.7147C20.1172 18.2966 20.9062 18.624 21.7292 18.6249H26.5594L26.0871 20.9864C26.0627 21.1085 26.0755 21.2351 26.1239 21.3498C26.1723 21.4645 26.2541 21.562 26.3586 21.6296C26.4631 21.6972 26.5856 21.7318 26.71 21.729C26.8345 21.7261 26.9552 21.686 27.0565 21.6136L27.3167 21.4279V23.9554L25.5827 22.2214C25.3212 21.96 25.0108 21.7526 24.6692 21.6111C24.3276 21.4696 23.9614 21.3967 23.5917 21.3967C23.2219 21.3967 22.8557 21.4696 22.5141 21.6111C22.1725 21.7526 21.8621 21.96 21.6006 22.2214C21.3392 22.4829 21.1318 22.7933 20.9903 23.1349C20.8488 23.4765 20.7759 23.8427 20.7759 24.2124C20.7759 24.5822 20.8488 24.9484 20.9903 25.29C21.1318 25.6316 21.3392 25.942 21.6006 26.2035L25.2747 29.8775C25.0376 30.2426 24.842 30.633 24.6917 31.0416H8.69165V34.1458C8.69262 34.9688 9.01997 35.7578 9.60191 36.3397C10.1838 36.9216 10.9728 37.249 11.7958 37.2499H33.525C33.6896 37.2499 33.8476 37.1845 33.964 37.0681C34.0804 36.9517 34.1458 36.7938 34.1458 36.6291V24.8581C34.1483 23.2182 33.5579 21.6327 32.4834 20.3938L31.1624 18.6807L31.2405 18.6249H34.1458C34.9688 18.624 35.7578 18.2966 36.3397 17.7147C36.9217 17.1328 37.249 16.3438 37.25 15.5208V8.07078C37.249 7.2478 36.9217 6.4588 36.3397 5.87687C35.7578 5.29493 34.9688 4.96758 34.1458 4.96661ZM21.7292 6.20828H34.1458C34.6396 6.20883 35.113 6.40524 35.4622 6.7544C35.8114 7.10357 36.0078 7.57698 36.0083 8.07078V14.3607L33.2486 12.5209C33.1465 12.453 33.0267 12.4168 32.9042 12.4168C32.7816 12.4168 32.6618 12.453 32.5597 12.5209L29.2003 14.7603L24.585 11.2991C24.4776 11.2185 24.347 11.175 24.2127 11.175C24.0785 11.175 23.9478 11.2185 23.8404 11.2991L19.8667 14.2791V8.07078C19.8672 7.57698 20.0636 7.10357 20.4128 6.7544C20.7619 6.40524 21.2354 6.20883 21.7292 6.20828ZM9.93332 34.1458V32.2833H24.3457C24.1451 33.5578 24.3573 34.863 24.9514 36.0083H11.7958C11.302 36.0077 10.8286 35.8113 10.4794 35.4622C10.1303 35.113 9.93387 34.6396 9.93332 34.1458ZM31.5243 21.1813C32.414 22.1996 32.9042 23.5059 32.9042 24.8581V36.0083H26.3884C25.9663 35.4104 25.6861 34.724 25.5693 34.0015C25.4524 33.279 25.502 32.5393 25.7143 31.8388C25.8472 31.3854 26.0484 30.9549 26.3108 30.562L26.5902 30.1461C26.6704 30.0267 26.7066 29.8831 26.6927 29.7399C26.6788 29.5967 26.6155 29.4627 26.5138 29.361L22.4783 25.3256C22.3322 25.1794 22.2162 25.0059 22.1371 24.8149C22.0581 24.6239 22.0174 24.4192 22.0174 24.2125C22.0174 23.795 22.1833 23.3946 22.4785 23.0994C22.7737 22.8043 23.1741 22.6384 23.5916 22.6385C23.7983 22.6385 24.003 22.6792 24.194 22.7583C24.385 22.8375 24.5585 22.9534 24.7047 23.0996L29.9817 28.3767L30.8596 27.4988L28.5583 25.1971V20.5408L30.1514 19.4029L31.5243 21.1813ZM34.1458 17.3833H31.0417C30.9123 17.3833 30.7862 17.4236 30.6809 17.4988L27.6125 19.6904L27.9254 18.1259C27.9434 18.0359 27.9412 17.9429 27.919 17.8538C27.8967 17.7647 27.855 17.6816 27.7968 17.6106C27.7385 17.5395 27.6653 17.4823 27.5822 17.443C27.4992 17.4037 27.4085 17.3833 27.3167 17.3833H21.7292C21.2862 17.3821 20.8582 17.2229 20.5221 16.9344C20.186 16.6458 19.9639 16.2468 19.8958 15.8091L24.2125 12.5718L28.8067 16.0174C28.9093 16.0946 29.0334 16.1379 29.1618 16.1415C29.2902 16.1451 29.4165 16.1087 29.5233 16.0375L32.9042 13.7835L35.9773 15.8322C35.9041 16.2653 35.6801 16.6585 35.3449 16.9423C35.0097 17.2262 34.585 17.3824 34.1458 17.3833Z" fill="#4C4CE6"/>
<path d="M29.1791 12.4166C29.6703 12.4166 30.1504 12.271 30.5588 11.9981C30.9672 11.7252 31.2855 11.3374 31.4734 10.8836C31.6614 10.4298 31.7106 9.93053 31.6148 9.44881C31.5189 8.96709 31.2824 8.5246 30.9351 8.1773C30.5878 7.83 30.1453 7.59349 29.6636 7.49767C29.1819 7.40185 28.6826 7.45103 28.2288 7.63898C27.775 7.82694 27.3872 8.14524 27.1143 8.55362C26.8414 8.962 26.6958 9.44213 26.6958 9.93329C26.6965 10.5917 26.9584 11.2229 27.4239 11.6885C27.8895 12.1541 28.5207 12.4159 29.1791 12.4166ZM29.1791 8.69162C29.4247 8.69162 29.6648 8.76444 29.869 8.90088C30.0732 9.03731 30.2323 9.23124 30.3263 9.45812C30.4203 9.68501 30.4449 9.93466 30.3969 10.1755C30.349 10.4164 30.2308 10.6376 30.0571 10.8113C29.8835 10.9849 29.6622 11.1032 29.4214 11.1511C29.1805 11.199 28.9309 11.1744 28.704 11.0804C28.4771 10.9865 28.2832 10.8273 28.1467 10.6231C28.0103 10.4189 27.9375 10.1789 27.9375 9.93329C27.9379 9.6041 28.0688 9.2885 28.3016 9.05573C28.5343 8.82295 28.8499 8.69201 29.1791 8.69162Z" fill="#4C4CE6"/>
<path d="M3.10417 29.8002H13.0375C13.8605 29.7992 14.6495 29.4719 15.2314 28.89C15.8133 28.308 16.1407 27.519 16.1417 26.696V22.971C16.1407 22.1481 15.8133 21.3591 15.2314 20.7771C14.6495 20.1952 13.8605 19.8678 13.0375 19.8669H12.5913L13.0187 18.155C13.0482 18.037 13.0423 17.913 13.0019 17.7983C12.9615 17.6836 12.8883 17.5832 12.7913 17.5098C12.6944 17.4363 12.578 17.393 12.4567 17.3851C12.3353 17.3772 12.2143 17.4051 12.1087 17.4654L7.90592 19.8669H3.10417C2.28119 19.8678 1.49219 20.1952 0.910256 20.7771C0.328321 21.3591 0.000965301 22.1481 0 22.971V26.696C0.000965301 27.519 0.328321 28.308 0.910256 28.89C1.49219 29.4719 2.28119 29.7992 3.10417 29.8002ZM1.24167 22.971C1.24222 22.4772 1.43863 22.0038 1.78779 21.6547C2.13696 21.3055 2.61037 21.1091 3.10417 21.1085H8.07083C8.17888 21.1085 8.28505 21.0803 8.37884 21.0267L11.4617 19.2651L11.1938 20.337C11.1709 20.4285 11.1691 20.5241 11.1887 20.6163C11.2082 20.7086 11.2486 20.7953 11.3066 20.8696C11.3646 20.944 11.4389 21.0042 11.5236 21.0456C11.6084 21.087 11.7015 21.1085 11.7958 21.1085H13.0375C13.5313 21.1091 14.0047 21.3055 14.3539 21.6547C14.703 22.0038 14.8994 22.4772 14.9 22.971V26.696C14.8994 27.1898 14.703 27.6632 14.3539 28.0124C14.0047 28.3616 13.5313 28.558 13.0375 28.5585H3.10417C2.61037 28.558 2.13696 28.3616 1.78779 28.0124C1.43863 27.6632 1.24222 27.1898 1.24167 26.696V22.971Z" fill="#4C4CE6"/>
<path d="M9.31257 22.9708H2.4834V24.2125H9.31257V22.9708Z" fill="#4C4CE6"/>
<path d="M13.6584 22.9708H10.5542V24.2125H13.6584V22.9708Z" fill="#4C4CE6"/>
<path d="M13.6584 25.4542H2.4834V26.6959H13.6584V25.4542Z" fill="#4C4CE6"/>
</svg>
