<svg width="42" height="42" viewBox="0 0 42 42" fill="none" xmlns="http://www.w3.org/2000/svg">
<path d="M32.9 2.79965C32.9009 2.63636 32.844 2.47801 32.7393 2.35268C32.6346 2.22736 32.4889 2.14317 32.3281 2.11505L21.1281 0.0115521C21.0429 -0.00385072 20.9557 -0.00385072 20.8705 0.0115521L9.6705 2.11575C9.50983 2.14376 9.36432 2.22786 9.25985 2.3531C9.15538 2.47833 9.09873 2.63657 9.1 2.79965V4.89965H0V34.2996H12.6V35.8256L2.6845 37.8094C1.5323 38.0012 0 38.4996 0 40.5996V41.2996C2.98495e-05 41.4013 0.0222116 41.5018 0.065002 41.594C0.107792 41.6863 0.170164 41.7681 0.247779 41.8338C0.325393 41.8994 0.416387 41.9474 0.51443 41.9744C0.612473 42.0013 0.715212 42.0066 0.8155 41.9898L13.3581 39.8996H28.6419L41.1845 41.9898C41.2226 41.9966 41.2613 41.9999 41.3 41.9996C41.4856 41.9996 41.6637 41.9259 41.795 41.7946C41.9262 41.6633 42 41.4853 42 41.2996V40.5996C42 38.5059 40.4775 38.004 39.3267 37.8108L29.4 35.8256V34.2996H42V4.89965H32.9V2.79965ZM21 1.41225L28.9226 2.89765L21 4.87795L13.0774 2.89765L21 1.41225ZM31.5 3.69635V14.9145L21.7 18.5895V6.14635L31.5 3.69635ZM10.5 3.69635L20.3 6.14635V18.5895L10.5 14.9145V3.69635ZM9.5543 16.0555L20.7543 20.2555C20.8347 20.2778 20.9169 20.2925 21 20.2996C21.0831 20.2925 21.1653 20.2778 21.2457 20.2555L32.4457 16.0555C32.5792 16.0055 32.6942 15.9159 32.7754 15.7987C32.8566 15.6814 32.9001 15.5422 32.9 15.3996V9.09965H37.8V30.0996H4.2V9.09965H9.1V15.3996C9.09991 15.5422 9.14336 15.6814 9.22455 15.7987C9.30574 15.9159 9.42078 16.0055 9.5543 16.0555ZM39.06 39.1856L39.0817 39.1898C40.299 39.3928 40.5685 39.7708 40.5951 40.4729L28.8127 38.5129C28.7756 38.5052 28.7379 38.5007 28.7 38.4996H13.3C13.2613 38.4994 13.2226 38.5027 13.1845 38.5094L1.4 40.4729C1.4266 39.7729 1.6968 39.3928 2.9351 39.1856L13.37 37.0996H28.63L39.06 39.1856ZM14 35.6996V34.2996H28V35.6996H14ZM40.6 6.29965V32.8996H1.4V6.29965H9.1V7.69965H2.8V31.4996H39.2V7.69965H32.9V6.29965H40.6Z" fill="#4C4CE6"/>
<path d="M10.1073 21.8202C10.0127 21.8844 9.93517 21.9708 9.8816 22.0718C9.82803 22.1728 9.80003 22.2855 9.80005 22.3998V26.5998C9.79994 26.7397 9.84177 26.8765 9.92012 26.9924C9.99848 27.1083 10.1098 27.1981 10.2396 27.2501L13.7396 28.6501C13.8247 28.675 13.9119 28.6916 14 28.6998C14.0882 28.6916 14.1754 28.675 14.2604 28.6501L17.7604 27.2501C17.8903 27.1981 18.0016 27.1083 18.08 26.9924C18.1583 26.8765 18.2002 26.7397 18.2 26.5998V22.3998C18.2001 22.2855 18.1721 22.1728 18.1185 22.0718C18.0649 21.9708 17.9874 21.8844 17.8927 21.8202C17.8501 21.7943 17.8059 21.771 17.7604 21.7502L14.2604 20.3502C14.0931 20.2845 13.907 20.2845 13.7396 20.3502L10.2396 21.7502C10.1943 21.7711 10.1501 21.7945 10.1073 21.8202ZM16.8 26.1259L14.7 26.9659V24.2737L16.8 23.4337V26.1259ZM14 21.7537L15.6149 22.3998L14 23.0459L12.3851 22.3998L14 21.7537ZM11.2 23.4337L13.3 24.2737V26.9659L11.2 26.1259V23.4337Z" fill="#4C4CE6"/>
<path d="M26.2875 24.4296L29.0875 25.8296C29.1847 25.8782 29.2918 25.9034 29.4004 25.9034C29.509 25.9034 29.6161 25.8782 29.7133 25.8296L32.5133 24.4296C32.6302 24.3712 32.7284 24.2812 32.7968 24.1699C32.8652 24.0586 32.9011 23.9303 32.9004 23.7996V20.9996C32.9005 20.8803 32.87 20.7629 32.8119 20.6586C32.7539 20.5544 32.6701 20.4667 32.5686 20.4039C32.5504 20.3927 32.5133 20.3731 32.5133 20.3731L29.7133 18.9731C29.6161 18.9246 29.509 18.8993 29.4004 18.8993C29.2918 18.8993 29.1847 18.9246 29.0875 18.9731L26.2875 20.3731C26.2875 20.3731 26.2504 20.3927 26.2322 20.4039C26.1307 20.4667 26.0469 20.5544 25.9889 20.6586C25.9308 20.7629 25.9003 20.8803 25.9004 20.9996V23.7996C25.8997 23.9303 25.9356 24.0586 26.004 24.1699C26.0724 24.2812 26.1706 24.3712 26.2875 24.4296ZM31.5004 23.367L30.1004 24.067V22.8322L31.5004 22.1322V23.367ZM29.4004 20.3822L30.6352 20.9996L29.4004 21.617L28.1656 20.9996L29.4004 20.3822ZM27.3004 22.1322L28.7004 22.8322V24.067L27.3004 23.367V22.1322Z" fill="#4C4CE6"/>
<path d="M35 27.2997H32.2V28.6997H36.3999V23.0997H35V27.2997Z" fill="#4C4CE6"/>
<path d="M35.7004 17.2737V13.2998H34.3004V16.3259L31.24 17.5495L31.7608 18.8501L35.7004 17.2737Z" fill="#4C4CE6"/>
<path d="M7.69956 10.4995H6.29956V17.2608L11.6238 19.5428L12.1754 18.2562L7.69956 16.3382V10.4995Z" fill="#4C4CE6"/>
<path d="M20.3 22.3997H21.7V23.7997H20.3V22.3997Z" fill="#4C4CE6"/>
<path d="M6.99976 26.5996H8.39976V27.9996H6.99976V26.5996Z" fill="#4C4CE6"/>
<path d="M22.4001 25.2H23.8001V26.6H22.4001V25.2Z" fill="#4C4CE6"/>
</svg>
