<svg width="64" height="64" viewBox="0 0 64 64" fill="none" xmlns="http://www.w3.org/2000/svg">
<rect width="64" height="64" rx="8" fill="#D2D2F9"/>
<path d="M32.2458 46.525H31.0042V47.7667H32.2458V46.525Z" fill="#4C4CE6"/>
<path d="M16.1042 26.6583H18.3887L22.5726 29.647C22.674 29.7193 22.7947 29.7595 22.9191 29.7624C23.0436 29.7652 23.166 29.7306 23.2705 29.663C23.3751 29.5953 23.4568 29.4979 23.5053 29.3832C23.5537 29.2685 23.5665 29.1419 23.5421 29.0198L23.0698 26.6583H27.2792C28.1021 26.6574 28.8911 26.33 29.4731 25.7481C30.055 25.1661 30.3824 24.3771 30.3833 23.5542V16.1042C30.3824 15.2812 30.055 14.4922 29.4731 13.9103C28.8911 13.3283 28.1021 13.001 27.2792 13H16.1042C15.2812 13.001 14.4922 13.3283 13.9103 13.9103C13.3283 14.4922 13.001 15.2812 13 16.1042V23.5542C13.001 24.3771 13.3283 25.1661 13.9103 25.7481C14.4922 26.33 15.2812 26.6574 16.1042 26.6583V26.6583ZM14.2417 16.1042C14.2422 15.6104 14.4386 15.137 14.7878 14.7878C15.137 14.4386 15.6104 14.2422 16.1042 14.2417H27.2792C27.773 14.2422 28.2464 14.4386 28.5955 14.7878C28.9447 15.137 29.1411 15.6104 29.1417 16.1042V23.5542C29.1411 24.048 28.9447 24.5214 28.5955 24.8705C28.2464 25.2197 27.773 25.4161 27.2792 25.4167H22.3125C22.2206 25.4167 22.1299 25.4371 22.0469 25.4764C21.9639 25.5157 21.8906 25.5729 21.8324 25.6439C21.7741 25.715 21.7324 25.7981 21.7102 25.8872C21.6879 25.9763 21.6857 26.0693 21.7038 26.1593L22.0167 27.7238L18.9482 25.5321C18.8429 25.457 18.7168 25.4166 18.5875 25.4167H16.1042C15.6104 25.4161 15.137 25.2197 14.7878 24.8705C14.4386 24.5214 14.2422 24.048 14.2417 23.5542V16.1042Z" fill="#4C4CE6"/>
<path d="M17.3458 19.2083V22.9333C17.3458 23.0979 17.4112 23.2558 17.5277 23.3723C17.6441 23.4887 17.802 23.5541 17.9667 23.5541H22.9333C23.098 23.5541 23.2559 23.4887 23.3723 23.3723C23.4888 23.2558 23.5542 23.0979 23.5542 22.9333V22.6962L25.139 23.4886C25.2337 23.536 25.3388 23.5583 25.4446 23.5535C25.5503 23.5488 25.653 23.5171 25.7431 23.4614C25.8331 23.4058 25.9074 23.3281 25.9589 23.2356C26.0105 23.1432 26.0375 23.0391 26.0375 22.9333V19.2083C26.0375 19.1024 26.0105 18.9984 25.9589 18.9059C25.9074 18.8135 25.8331 18.7358 25.7431 18.6801C25.653 18.6245 25.5503 18.5928 25.4446 18.588C25.3388 18.5833 25.2337 18.6056 25.139 18.6529L23.5542 19.4454V19.2083C23.5542 19.198 23.5488 19.1893 23.5483 19.1792C23.75 18.9762 23.9097 18.7353 24.0179 18.4704C24.1262 18.2055 24.1811 17.9218 24.1792 17.6356C24.1774 17.3494 24.119 17.0664 24.0074 16.8029C23.8958 16.5394 23.7331 16.3006 23.5288 16.1002C23.3245 15.8998 23.0826 15.7418 22.8169 15.6353C22.5513 15.5287 22.2672 15.4758 21.9811 15.4796C21.6949 15.4833 21.4123 15.5436 21.1495 15.657C20.8868 15.7704 20.649 15.9346 20.45 16.1403C20.251 15.9346 20.0132 15.7704 19.7505 15.657C19.4877 15.5436 19.2051 15.4833 18.9189 15.4796C18.6328 15.4758 18.3487 15.5287 18.0831 15.6353C17.8174 15.7418 17.5755 15.8998 17.3712 16.1002C17.1669 16.3006 17.0042 16.5394 16.8926 16.8029C16.781 17.0664 16.7226 17.3494 16.7207 17.6356C16.7189 17.9218 16.7738 18.2055 16.882 18.4704C16.9903 18.7353 17.15 18.9762 17.3517 19.1792C17.3512 19.1893 17.3458 19.198 17.3458 19.2083ZM22.3125 22.3124H18.5875V19.8291H22.3125V22.3124ZM24.7958 20.2129V21.9287L23.5542 21.3079V20.8337L24.7958 20.2129ZM22.0021 16.7249C22.1863 16.7249 22.3663 16.7796 22.5195 16.8819C22.6726 16.9842 22.792 17.1297 22.8624 17.2998C22.9329 17.47 22.9514 17.6572 22.9154 17.8379C22.8795 18.0185 22.7908 18.1845 22.6606 18.3147C22.5303 18.4449 22.3644 18.5336 22.1838 18.5696C22.0031 18.6055 21.8159 18.587 21.6457 18.5166C21.4755 18.4461 21.3301 18.3267 21.2278 18.1736C21.1254 18.0204 21.0708 17.8404 21.0708 17.6562C21.0711 17.4093 21.1693 17.1726 21.3439 16.998C21.5185 16.8234 21.7552 16.7252 22.0021 16.7249V16.7249ZM18.8979 16.7249C19.0821 16.7249 19.2621 16.7796 19.4153 16.8819C19.5684 16.9842 19.6878 17.1297 19.7583 17.2998C19.8288 17.47 19.8472 17.6572 19.8113 17.8379C19.7753 18.0185 19.6866 18.1845 19.5564 18.3147C19.4262 18.4449 19.2602 18.5336 19.0796 18.5696C18.8989 18.6055 18.7117 18.587 18.5415 18.5166C18.3714 18.4461 18.2259 18.3267 18.1236 18.1736C18.0213 18.0204 17.9667 17.8404 17.9667 17.6562C17.9669 17.4093 18.0651 17.1726 18.2397 16.998C18.4143 16.8234 18.651 16.7252 18.8979 16.7249V16.7249Z" fill="#4C4CE6"/>
<path d="M47.1458 17.9666H41.4955C41.3515 17.266 40.9704 16.6365 40.4164 16.1842C39.8624 15.7318 39.1694 15.4843 38.4542 15.4833H31.625V16.7249H38.4542C38.8381 16.7261 39.2122 16.8461 39.5252 17.0684C39.8382 17.2907 40.0747 17.6045 40.2023 17.9666H34.7292C33.9062 17.9676 33.1172 18.2949 32.5352 18.8769C31.9533 19.4588 31.6259 20.2478 31.625 21.0708V28.5208C31.6259 29.3438 31.9533 30.1328 32.5352 30.7147C33.1172 31.2966 33.9062 31.624 34.7292 31.6249H39.5594L39.0871 33.9864C39.0627 34.1085 39.0755 34.2351 39.1239 34.3498C39.1723 34.4645 39.2541 34.562 39.3586 34.6296C39.4631 34.6972 39.5856 34.7318 39.71 34.729C39.8345 34.7261 39.9552 34.686 40.0565 34.6136L40.3167 34.4279V36.9554L38.5827 35.2214C38.3212 34.96 38.0108 34.7526 37.6692 34.6111C37.3276 34.4696 36.9614 34.3967 36.5917 34.3967C36.2219 34.3967 35.8557 34.4696 35.5141 34.6111C35.1725 34.7526 34.8621 34.96 34.6006 35.2214C34.3392 35.4829 34.1318 35.7933 33.9903 36.1349C33.8488 36.4765 33.7759 36.8427 33.7759 37.2124C33.7759 37.5822 33.8488 37.9484 33.9903 38.29C34.1318 38.6316 34.3392 38.942 34.6006 39.2035L38.2747 42.8775C38.0376 43.2426 37.842 43.633 37.6917 44.0416H21.6917V47.1458C21.6926 47.9688 22.02 48.7578 22.6019 49.3397C23.1838 49.9216 23.9728 50.249 24.7958 50.2499H46.525C46.6896 50.2499 46.8476 50.1845 46.964 50.0681C47.0804 49.9517 47.1458 49.7938 47.1458 49.6291V37.8581C47.1483 36.2182 46.5579 34.6327 45.4834 33.3938L44.1624 31.6807L44.2405 31.6249H47.1458C47.9688 31.624 48.7578 31.2966 49.3397 30.7147C49.9217 30.1328 50.249 29.3438 50.25 28.5208V21.0708C50.249 20.2478 49.9217 19.4588 49.3397 18.8769C48.7578 18.2949 47.9688 17.9676 47.1458 17.9666ZM34.7292 19.2083H47.1458C47.6396 19.2088 48.113 19.4052 48.4622 19.7544C48.8114 20.1036 49.0078 20.577 49.0083 21.0708V27.3607L46.2486 25.5209C46.1465 25.453 46.0267 25.4168 45.9042 25.4168C45.7816 25.4168 45.6618 25.453 45.5597 25.5209L42.2003 27.7603L37.585 24.2991C37.4776 24.2185 37.347 24.175 37.2127 24.175C37.0785 24.175 36.9478 24.2185 36.8404 24.2991L32.8667 27.2791V21.0708C32.8672 20.577 33.0636 20.1036 33.4128 19.7544C33.7619 19.4052 34.2354 19.2088 34.7292 19.2083V19.2083ZM22.9333 47.1458V45.2833H37.3457C37.1451 46.5578 37.3573 47.863 37.9514 49.0083H24.7958C24.302 49.0077 23.8286 48.8113 23.4794 48.4622C23.1303 48.113 22.9339 47.6396 22.9333 47.1458V47.1458ZM44.5243 34.1813C45.414 35.1996 45.9042 36.5059 45.9042 37.8581V49.0083H39.3884C38.9663 48.4104 38.6861 47.724 38.5693 47.0015C38.4524 46.279 38.502 45.5393 38.7143 44.8388C38.8472 44.3854 39.0484 43.9549 39.3108 43.562L39.5902 43.1461C39.6704 43.0267 39.7066 42.8831 39.6927 42.7399C39.6788 42.5967 39.6155 42.4627 39.5138 42.361L35.4783 38.3256C35.3322 38.1794 35.2162 38.0059 35.1371 37.8149C35.0581 37.6239 35.0174 37.4192 35.0174 37.2125C35.0174 36.795 35.1833 36.3946 35.4785 36.0994C35.7737 35.8043 36.1741 35.6384 36.5916 35.6385C36.7983 35.6385 37.003 35.6792 37.194 35.7583C37.385 35.8375 37.5585 35.9534 37.7047 36.0996L42.9817 41.3767L43.8596 40.4988L41.5583 38.1971V33.5408L43.1514 32.4029L44.5243 34.1813ZM47.1458 30.3833H44.0417C43.9123 30.3833 43.7862 30.4236 43.6809 30.4988L40.6125 32.6904L40.9254 31.1259C40.9434 31.0359 40.9412 30.9429 40.919 30.8538C40.8967 30.7647 40.855 30.6816 40.7968 30.6106C40.7385 30.5395 40.6653 30.4823 40.5822 30.443C40.4992 30.4037 40.4085 30.3833 40.3167 30.3833H34.7292C34.2862 30.3821 33.8582 30.2229 33.5221 29.9344C33.186 29.6458 32.9639 29.2468 32.8958 28.8091L37.2125 25.5718L41.8067 29.0174C41.9093 29.0946 42.0334 29.1379 42.1618 29.1415C42.2902 29.1451 42.4165 29.1087 42.5233 29.0375L45.9042 26.7835L48.9773 28.8322C48.9041 29.2653 48.6801 29.6585 48.3449 29.9423C48.0097 30.2262 47.585 30.3824 47.1458 30.3833V30.3833Z" fill="#4C4CE6"/>
<path d="M42.1791 25.4166C42.6703 25.4166 43.1504 25.271 43.5588 24.9981C43.9672 24.7252 44.2855 24.3374 44.4734 23.8836C44.6614 23.4298 44.7106 22.9305 44.6148 22.4488C44.5189 21.9671 44.2824 21.5246 43.9351 21.1773C43.5878 20.83 43.1453 20.5935 42.6636 20.4977C42.1819 20.4018 41.6826 20.451 41.2288 20.639C40.775 20.8269 40.3872 21.1452 40.1143 21.5536C39.8414 21.962 39.6958 22.4421 39.6958 22.9333C39.6965 23.5917 39.9584 24.2229 40.4239 24.6885C40.8895 25.1541 41.5207 25.4159 42.1791 25.4166V25.4166ZM42.1791 21.6916C42.4247 21.6916 42.6648 21.7644 42.869 21.9009C43.0732 22.0373 43.2323 22.2312 43.3263 22.4581C43.4203 22.685 43.4449 22.9347 43.3969 23.1755C43.349 23.4164 43.2308 23.6376 43.0571 23.8113C42.8835 23.9849 42.6622 24.1032 42.4214 24.1511C42.1805 24.199 41.9309 24.1744 41.704 24.0804C41.4771 23.9865 41.2832 23.8273 41.1467 23.6231C41.0103 23.4189 40.9375 23.1789 40.9375 22.9333C40.9379 22.6041 41.0688 22.2885 41.3016 22.0557C41.5343 21.823 41.8499 21.692 42.1791 21.6916V21.6916Z" fill="#4C4CE6"/>
<path d="M16.1042 42.8002H26.0375C26.8605 42.7992 27.6495 42.4719 28.2314 41.89C28.8133 41.308 29.1407 40.519 29.1417 39.696V35.971C29.1407 35.1481 28.8133 34.3591 28.2314 33.7771C27.6495 33.1952 26.8605 32.8678 26.0375 32.8669H25.5913L26.0187 31.155C26.0482 31.037 26.0423 30.913 26.0019 30.7983C25.9615 30.6836 25.8883 30.5832 25.7913 30.5098C25.6944 30.4363 25.578 30.393 25.4567 30.3851C25.3353 30.3772 25.2143 30.4051 25.1087 30.4654L20.9059 32.8669H16.1042C15.2812 32.8678 14.4922 33.1952 13.9103 33.7771C13.3283 34.3591 13.001 35.1481 13 35.971V39.696C13.001 40.519 13.3283 41.308 13.9103 41.89C14.4922 42.4719 15.2812 42.7992 16.1042 42.8002V42.8002ZM14.2417 35.971C14.2422 35.4772 14.4386 35.0038 14.7878 34.6547C15.137 34.3055 15.6104 34.1091 16.1042 34.1085H21.0708C21.1789 34.1085 21.285 34.0803 21.3788 34.0267L24.4617 32.2651L24.1938 33.337C24.1709 33.4285 24.1691 33.5241 24.1887 33.6163C24.2082 33.7086 24.2486 33.7953 24.3066 33.8696C24.3646 33.944 24.4389 34.0042 24.5236 34.0456C24.6084 34.087 24.7015 34.1085 24.7958 34.1085H26.0375C26.5313 34.1091 27.0047 34.3055 27.3539 34.6547C27.703 35.0038 27.8994 35.4772 27.9 35.971V39.696C27.8994 40.1898 27.703 40.6632 27.3539 41.0124C27.0047 41.3616 26.5313 41.558 26.0375 41.5585H16.1042C15.6104 41.558 15.137 41.3616 14.7878 41.0124C14.4386 40.6632 14.2422 40.1898 14.2417 39.696V35.971Z" fill="#4C4CE6"/>
<path d="M22.3126 35.9708H15.4834V37.2125H22.3126V35.9708Z" fill="#4C4CE6"/>
<path d="M26.6584 35.9708H23.5542V37.2125H26.6584V35.9708Z" fill="#4C4CE6"/>
<path d="M26.6584 38.4542H15.4834V39.6959H26.6584V38.4542Z" fill="#4C4CE6"/>
</svg>
