<svg width="42" height="42" viewBox="0 0 42 42" fill="none" xmlns="http://www.w3.org/2000/svg">
<path d="M21.3125 37.125H19.9375V38.5H21.3125V37.125Z" fill="#4C4CE6"/>
<path d="M3.4375 15.125H5.96733L10.6006 18.4346C10.7128 18.5147 10.8465 18.5592 10.9843 18.5624C11.1221 18.5655 11.2577 18.5272 11.3734 18.4523C11.4892 18.3774 11.5797 18.2694 11.6333 18.1424C11.687 18.0154 11.7012 17.8752 11.6741 17.7401L11.1511 15.125H15.8125C16.7239 15.1239 17.5976 14.7614 18.242 14.117C18.8864 13.4726 19.2489 12.5989 19.25 11.6875V3.4375C19.2489 2.52615 18.8864 1.65243 18.242 1.008C17.5976 0.363576 16.7239 0.00106896 15.8125 0H3.4375C2.52615 0.00106896 1.65243 0.363576 1.008 1.008C0.363576 1.65243 0.00106896 2.52615 0 3.4375V11.6875C0.00106896 12.5989 0.363576 13.4726 1.008 14.117C1.65243 14.7614 2.52615 15.1239 3.4375 15.125ZM1.375 3.4375C1.37561 2.89068 1.59311 2.36643 1.97977 1.97977C2.36643 1.59311 2.89068 1.37561 3.4375 1.375H15.8125C16.3593 1.37561 16.8836 1.59311 17.2702 1.97977C17.6569 2.36643 17.8744 2.89068 17.875 3.4375V11.6875C17.8744 12.2343 17.6569 12.7586 17.2702 13.1452C16.8836 13.5319 16.3593 13.7494 15.8125 13.75H10.3125C10.2108 13.75 10.1103 13.7726 10.0184 13.8161C9.92644 13.8596 9.84531 13.923 9.78082 14.0017C9.71634 14.0804 9.67012 14.1724 9.64549 14.271C9.62086 14.3697 9.61844 14.4727 9.63841 14.5724L9.98491 16.3049L6.58694 13.8779C6.47036 13.7947 6.33071 13.75 6.1875 13.75H3.4375C2.89068 13.7494 2.36643 13.5319 1.97977 13.1452C1.59311 12.7586 1.37561 12.2343 1.375 11.6875V3.4375Z" fill="#4C4CE6"/>
<path d="M4.81262 6.87481V10.9998C4.81262 11.1822 4.88505 11.357 5.01398 11.486C5.14291 11.6149 5.31778 11.6873 5.50012 11.6873H11.0001C11.1825 11.6873 11.3573 11.6149 11.4863 11.486C11.6152 11.357 11.6876 11.1822 11.6876 10.9998V10.7373L13.4426 11.6148C13.5475 11.6672 13.6639 11.6919 13.781 11.6867C13.8981 11.6814 14.0119 11.6463 14.1116 11.5847C14.2113 11.5231 14.2935 11.437 14.3506 11.3346C14.4077 11.2323 14.4376 11.117 14.4376 10.9998V6.87481C14.4376 6.75762 14.4077 6.64236 14.3506 6.54C14.2935 6.43763 14.2113 6.35156 14.1116 6.28994C14.0119 6.22832 13.8981 6.19321 13.781 6.18795C13.6639 6.18268 13.5475 6.20743 13.4426 6.25985L11.6876 7.13735V6.87481C11.6876 6.86339 11.6817 6.85385 11.6811 6.84259C11.9045 6.61783 12.0813 6.35109 12.2012 6.05773C12.3211 5.76438 12.3818 5.4502 12.3798 5.13328C12.3778 4.81637 12.3131 4.50298 12.1895 4.21116C12.0659 3.91935 11.8858 3.65486 11.6595 3.43294C11.4333 3.21103 11.1654 3.03605 10.8712 2.91811C10.5771 2.80016 10.2625 2.74156 9.94558 2.74569C9.62869 2.74982 9.31574 2.81659 9.02476 2.94216C8.73378 3.06773 8.47051 3.24962 8.25012 3.47736C8.02972 3.24962 7.76645 3.06773 7.47547 2.94216C7.18449 2.81659 6.87154 2.74982 6.55465 2.74569C6.23775 2.74156 5.92317 2.80016 5.62902 2.91811C5.33487 3.03605 5.06695 3.21103 4.84069 3.43294C4.61444 3.65486 4.43432 3.91935 4.3107 4.21116C4.18708 4.50298 4.12241 4.81637 4.12041 5.13328C4.11841 5.4502 4.17911 5.76438 4.29903 6.05773C4.41895 6.35109 4.59572 6.61783 4.81915 6.84259C4.81855 6.85385 4.81262 6.86339 4.81262 6.87481ZM10.3126 10.3123H6.18762V7.56231H10.3126V10.3123ZM13.0626 7.98728V9.88735L11.6876 9.19985V8.67478L13.0626 7.98728ZM9.96887 4.12481C10.1728 4.12481 10.3722 4.1853 10.5418 4.29861C10.7114 4.41193 10.8436 4.57299 10.9216 4.76142C10.9997 4.94986 11.0201 5.15721 10.9803 5.35725C10.9405 5.5573 10.8423 5.74105 10.6981 5.88527C10.5538 6.02949 10.3701 6.12771 10.1701 6.1675C9.97001 6.20729 9.76266 6.18687 9.57422 6.10882C9.38579 6.03076 9.22473 5.89858 9.11141 5.729C8.9981 5.55941 8.93762 5.36003 8.93762 5.15606C8.93791 4.88265 9.04666 4.62052 9.23999 4.42719C9.43332 4.23385 9.69545 4.12511 9.96887 4.12481ZM6.53137 4.12481C6.73533 4.12481 6.93471 4.1853 7.1043 4.29861C7.27389 4.41193 7.40606 4.57299 7.48412 4.76142C7.56217 4.94986 7.58259 5.15721 7.5428 5.35725C7.50301 5.5573 7.40479 5.74105 7.26057 5.88527C7.11635 6.02949 6.9326 6.12771 6.73255 6.1675C6.53251 6.20729 6.32516 6.18687 6.13672 6.10882C5.94829 6.03076 5.78723 5.89858 5.67391 5.729C5.5606 5.55941 5.50012 5.36003 5.50012 5.15606C5.50041 4.88265 5.60916 4.62052 5.80249 4.42719C5.99582 4.23385 6.25795 4.12511 6.53137 4.12481Z" fill="#4C4CE6"/>
<path d="M37.8125 5.5H31.5555C31.396 4.72419 30.974 4.02707 30.3605 3.52614C29.747 3.02521 28.9795 2.7511 28.1875 2.75H20.625V4.125H28.1875C28.6126 4.1263 29.027 4.25916 29.3736 4.50536C29.7202 4.75155 29.9821 5.099 30.1233 5.5H24.0625C23.1511 5.50107 22.2774 5.86358 21.633 6.508C20.9886 7.15243 20.6261 8.02615 20.625 8.9375V17.1875C20.6261 18.0989 20.9886 18.9726 21.633 19.617C22.2774 20.2614 23.1511 20.6239 24.0625 20.625H29.4114L28.8884 23.2401C28.8613 23.3752 28.8755 23.5154 28.9292 23.6424C28.9828 23.7694 29.0733 23.8774 29.1891 23.9523C29.3048 24.0272 29.4404 24.0655 29.5782 24.0624C29.716 24.0592 29.8497 24.0147 29.9619 23.9346L30.25 23.7289V26.5279L28.3298 24.6077C28.0403 24.3181 27.6965 24.0885 27.3182 23.9318C26.9399 23.7751 26.5345 23.6944 26.125 23.6944C25.7155 23.6944 25.3101 23.7751 24.9318 23.9318C24.5535 24.0885 24.2097 24.3181 23.9202 24.6077C23.6306 24.8972 23.401 25.241 23.2443 25.6193C23.0876 25.9976 23.0069 26.403 23.0069 26.8125C23.0069 27.222 23.0876 27.6274 23.2443 28.0057C23.401 28.384 23.6306 28.7278 23.9202 29.0173L27.9888 33.0859C27.7262 33.4902 27.5096 33.9226 27.3432 34.375H9.625V37.8125C9.62607 38.7239 9.98858 39.5976 10.633 40.242C11.2774 40.8864 12.1511 41.2489 13.0625 41.25H37.125C37.3073 41.25 37.4822 41.1776 37.6111 41.0486C37.7401 40.9197 37.8125 40.7448 37.8125 40.5625V27.5275C37.8152 25.7115 37.1614 23.9557 35.9715 22.5838L34.5087 20.6868L34.5952 20.625H37.8125C38.7239 20.6239 39.5976 20.2614 40.242 19.617C40.8864 18.9726 41.2489 18.0989 41.25 17.1875V8.9375C41.2489 8.02615 40.8864 7.15243 40.242 6.508C39.5976 5.86358 38.7239 5.50107 37.8125 5.5ZM24.0625 6.875H37.8125C38.3593 6.87561 38.8836 7.09311 39.2702 7.47977C39.6569 7.86643 39.8744 8.39068 39.875 8.9375V15.9029L36.8189 13.8655C36.7059 13.7903 36.5732 13.7502 36.4375 13.7502C36.3018 13.7502 36.1691 13.7903 36.0561 13.8655L32.336 16.3453L27.225 12.5125C27.1061 12.4233 26.9614 12.375 26.8128 12.375C26.6641 12.375 26.5194 12.4233 26.4005 12.5125L22 15.8125V8.9375C22.0006 8.39068 22.2181 7.86643 22.6048 7.47977C22.9914 7.09311 23.5157 6.87561 24.0625 6.875ZM11 37.8125V35.75H26.96C26.7378 37.1614 26.9729 38.6068 27.6308 39.875H13.0625C12.5157 39.8744 11.9914 39.6569 11.6048 39.2702C11.2181 38.8836 11.0006 38.3593 11 37.8125ZM34.9094 23.4559C35.8947 24.5835 36.4376 26.0301 36.4375 27.5275V39.875H29.2221C28.7546 39.2129 28.4443 38.4529 28.315 37.6527C28.1856 36.8526 28.2405 36.0335 28.4756 35.2578C28.6228 34.7557 28.8455 34.279 29.1362 33.8439L29.4455 33.3834C29.5344 33.2511 29.5745 33.0921 29.559 32.9335C29.5436 32.7749 29.4736 32.6266 29.3609 32.5139L24.8921 28.0452C24.7303 27.8833 24.6019 27.6911 24.5143 27.4796C24.4267 27.2681 24.3816 27.0415 24.3817 26.8125C24.3817 26.3502 24.5654 25.9069 24.8923 25.58C25.2192 25.2531 25.6626 25.0695 26.125 25.0695C26.3539 25.0695 26.5805 25.1146 26.792 25.2022C27.0035 25.2899 27.1957 25.4183 27.3575 25.5802L33.2013 31.4239L34.1734 30.4518L31.625 27.9029V22.7466L33.3891 21.4865L34.9094 23.4559ZM37.8125 19.25H34.375C34.2318 19.25 34.0921 19.2947 33.9756 19.3779L30.5776 21.8049L30.9241 20.0724C30.9441 19.9727 30.9416 19.8697 30.917 19.7711C30.8924 19.6724 30.8462 19.5804 30.7817 19.5017C30.7172 19.423 30.6361 19.3596 30.5441 19.3161C30.4522 19.2726 30.3517 19.25 30.25 19.25H24.0625C23.572 19.2487 23.098 19.0724 22.7258 18.7529C22.3536 18.4333 22.1077 17.9915 22.0322 17.5068L26.8125 13.9219L31.9 17.7375C32.0137 17.8229 32.1511 17.8709 32.2933 17.8749C32.4354 17.8789 32.5753 17.8386 32.6936 17.7597L36.4375 15.2636L39.8406 17.5324C39.7595 18.0119 39.5115 18.4474 39.1403 18.7617C38.7692 19.076 38.2989 19.249 37.8125 19.25Z" fill="#4C4CE6"/>
<path d="M32.3125 13.75C32.8564 13.75 33.3881 13.5887 33.8403 13.2865C34.2926 12.9844 34.645 12.5549 34.8532 12.0524C35.0613 11.5499 35.1158 10.997 35.0097 10.4635C34.9036 9.93006 34.6416 9.44005 34.257 9.05546C33.8725 8.67086 33.3824 8.40895 32.849 8.30284C32.3156 8.19673 31.7626 8.25119 31.2601 8.45933C30.7576 8.66747 30.3281 9.01995 30.026 9.47218C29.7238 9.92442 29.5625 10.4561 29.5625 11C29.5633 11.7291 29.8533 12.4281 30.3688 12.9437C30.8844 13.4592 31.5834 13.7492 32.3125 13.75ZM32.3125 9.625C32.5845 9.625 32.8503 9.70564 33.0764 9.85673C33.3025 10.0078 33.4788 10.2226 33.5828 10.4738C33.6869 10.7251 33.7141 11.0015 33.6611 11.2683C33.608 11.535 33.4771 11.78 33.2848 11.9723C33.0925 12.1646 32.8475 12.2955 32.5808 12.3486C32.314 12.4016 32.0376 12.3744 31.7863 12.2703C31.5351 12.1663 31.3203 11.99 31.1692 11.7639C31.0181 11.5378 30.9375 11.272 30.9375 11C30.9379 10.6355 31.0829 10.286 31.3407 10.0282C31.5985 9.77044 31.948 9.62543 32.3125 9.625Z" fill="#4C4CE6"/>
<path d="M3.4375 33.0002H14.4375C15.3489 32.9991 16.2226 32.6366 16.867 31.9922C17.5114 31.3478 17.8739 30.4741 17.875 29.5627V25.4377C17.8739 24.5264 17.5114 23.6526 16.867 23.0082C16.2226 22.3638 15.3489 22.0013 14.4375 22.0002H13.9434L14.4167 20.1045C14.4493 19.9739 14.4429 19.8365 14.3981 19.7095C14.3533 19.5824 14.2722 19.4714 14.1649 19.39C14.0575 19.3087 13.9287 19.2607 13.7943 19.2519C13.6599 19.2432 13.5259 19.2741 13.4089 19.3409L8.75488 22.0002H3.4375C2.52615 22.0013 1.65243 22.3638 1.008 23.0082C0.363576 23.6526 0.00106896 24.5264 0 25.4377V29.5627C0.00106896 30.4741 0.363576 31.3478 1.008 31.9922C1.65243 32.6366 2.52615 32.9991 3.4375 33.0002ZM1.375 25.4377C1.37561 24.8909 1.59311 24.3666 1.97977 23.98C2.36643 23.5933 2.89068 23.3758 3.4375 23.3752H8.9375C9.05715 23.3752 9.17472 23.3439 9.27859 23.2846L12.6925 21.3338L12.3958 22.5208C12.3704 22.6222 12.3685 22.728 12.3902 22.8302C12.4118 22.9324 12.4565 23.0283 12.5207 23.1107C12.585 23.193 12.6672 23.2597 12.7611 23.3055C12.8549 23.3513 12.958 23.3752 13.0625 23.3752H14.4375C14.9843 23.3758 15.5086 23.5933 15.8952 23.98C16.2819 24.3666 16.4994 24.8909 16.5 25.4377V29.5627C16.4994 30.1095 16.2819 30.6338 15.8952 31.0204C15.5086 31.4071 14.9843 31.6246 14.4375 31.6252H3.4375C2.89068 31.6246 2.36643 31.4071 1.97977 31.0204C1.59311 30.6338 1.37561 30.1095 1.375 29.5627V25.4377Z" fill="#4C4CE6"/>
<path d="M10.3125 25.4375H2.75V26.8125H10.3125V25.4375Z" fill="#4C4CE6"/>
<path d="M15.125 25.4375H11.6875V26.8125H15.125V25.4375Z" fill="#4C4CE6"/>
<path d="M15.125 28.1875H2.75V29.5625H15.125V28.1875Z" fill="#4C4CE6"/>
</svg>
