<svg width="64" height="64" viewBox="0 0 64 64" fill="none" xmlns="http://www.w3.org/2000/svg">
<rect width="64" height="64" rx="8" fill="#EAB293"/>
<path d="M43.9 13.7997C43.9009 13.6364 43.844 13.478 43.7393 13.3527C43.6346 13.2274 43.4889 13.1432 43.3281 13.1151L32.1281 11.0116C32.0429 10.9961 31.9557 10.9961 31.8705 11.0116L20.6705 13.1158C20.5098 13.1438 20.3643 13.2279 20.2598 13.3531C20.1554 13.4783 20.0987 13.6366 20.1 13.7997V15.8997H11V45.2996H23.6V46.8256L13.6845 48.8094C12.5323 49.0012 11 49.4996 11 51.5996V52.2996C11 52.4013 11.0222 52.5018 11.065 52.594C11.1078 52.6863 11.1702 52.7681 11.2478 52.8338C11.3254 52.8994 11.4164 52.9474 11.5144 52.9744C11.6125 53.0013 11.7152 53.0066 11.8155 52.9898L24.3581 50.8996H39.6419L52.1845 52.9898C52.2226 52.9966 52.2613 52.9999 52.3 52.9996C52.4856 52.9996 52.6637 52.9259 52.795 52.7946C52.9262 52.6633 53 52.4853 53 52.2996V51.5996C53 49.5059 51.4775 49.004 50.3267 48.8108L40.4 46.8256V45.2996H53V15.8997H43.9V13.7997ZM32 12.4123L39.9226 13.8977L32 15.878L24.0774 13.8977L32 12.4123ZM42.5 14.6964V25.9145L32.7 29.5895V17.1464L42.5 14.6964ZM21.5 14.6964L31.3 17.1464V29.5895L21.5 25.9145V14.6964ZM20.5543 27.0555L31.7543 31.2555C31.8347 31.2778 31.9169 31.2925 32 31.2996C32.0831 31.2925 32.1653 31.2778 32.2457 31.2555L43.4457 27.0555C43.5792 27.0055 43.6942 26.9159 43.7754 26.7987C43.8566 26.6814 43.9001 26.5422 43.9 26.3996V20.0996H48.8V41.0996H15.2V20.0996H20.1V26.3996C20.0999 26.5422 20.1434 26.6814 20.2246 26.7987C20.3057 26.9159 20.4208 27.0055 20.5543 27.0555V27.0555ZM50.06 50.1856L50.0817 50.1898C51.299 50.3928 51.5685 50.7708 51.5951 51.4729L39.8127 49.5129C39.7756 49.5052 39.7379 49.5007 39.7 49.4996H24.3C24.2613 49.4994 24.2226 49.5027 24.1845 49.5094L12.4 51.4729C12.4266 50.7729 12.6968 50.3928 13.9351 50.1856L24.37 48.0996H39.63L50.06 50.1856ZM25 46.6996V45.2996H39V46.6996H25ZM51.6 17.2997V43.8996H12.4V17.2997H20.1V18.6997H13.8V42.4996H50.2V18.6997H43.9V17.2997H51.6Z" fill="white"/>
<path d="M21.1072 32.8202C21.0126 32.8844 20.935 32.9708 20.8815 33.0718C20.8279 33.1728 20.7999 33.2855 20.7999 33.3998V37.5998C20.7998 37.7397 20.8416 37.8765 20.92 37.9924C20.9984 38.1083 21.1097 38.1981 21.2395 38.2501L24.7395 39.6501C24.8245 39.675 24.9117 39.6916 24.9999 39.6998C25.0881 39.6916 25.1753 39.675 25.2603 39.6501L28.7603 38.2501C28.8902 38.1981 29.0015 38.1083 29.0799 37.9924C29.1582 37.8765 29.2 37.7397 29.1999 37.5998V33.3998C29.1999 33.2855 29.1719 33.1728 29.1184 33.0718C29.0648 32.9708 28.9873 32.8844 28.8926 32.8202C28.8499 32.7943 28.8058 32.771 28.7603 32.7502L25.2603 31.3502C25.093 31.2845 24.9069 31.2845 24.7395 31.3502L21.2395 32.7502C21.1942 32.7711 21.15 32.7945 21.1072 32.8202V32.8202ZM27.7999 37.1259L25.6999 37.9659V35.2737L27.7999 34.4337V37.1259ZM24.9999 32.7537L26.6148 33.3998L24.9999 34.0459L23.385 33.3998L24.9999 32.7537ZM22.1999 34.4337L24.2999 35.2737V37.9659L22.1999 37.1259V34.4337Z" fill="white"/>
<path d="M37.2875 35.4296L40.0875 36.8296C40.1847 36.8782 40.2918 36.9034 40.4004 36.9034C40.509 36.9034 40.6161 36.8782 40.7133 36.8296L43.5133 35.4296C43.6302 35.3712 43.7284 35.2812 43.7968 35.1699C43.8652 35.0586 43.9011 34.9303 43.9004 34.7996V31.9996C43.9005 31.8803 43.87 31.7629 43.8119 31.6586C43.7539 31.5544 43.6701 31.4667 43.5686 31.4039C43.5504 31.3927 43.5133 31.3731 43.5133 31.3731L40.7133 29.9731C40.6161 29.9246 40.509 29.8993 40.4004 29.8993C40.2918 29.8993 40.1847 29.9246 40.0875 29.9731L37.2875 31.3731C37.2875 31.3731 37.2504 31.3927 37.2322 31.4039C37.1307 31.4667 37.0469 31.5544 36.9889 31.6586C36.9308 31.7629 36.9003 31.8803 36.9004 31.9996V34.7996C36.8997 34.9303 36.9356 35.0586 37.004 35.1699C37.0724 35.2812 37.1706 35.3712 37.2875 35.4296V35.4296ZM42.5004 34.367L41.1004 35.067V33.8322L42.5004 33.1322V34.367ZM40.4004 31.3822L41.6352 31.9996L40.4004 32.617L39.1656 31.9996L40.4004 31.3822ZM38.3004 33.1322L39.7004 33.8322V35.067L38.3004 34.367V33.1322Z" fill="white"/>
<path d="M46.0001 38.2997H43.2001V39.6997H47.4001V34.0997H46.0001V38.2997Z" fill="white"/>
<path d="M46.7003 28.2737V24.2998H45.3003V27.3259L42.2399 28.5495L42.7607 29.8501L46.7003 28.2737Z" fill="white"/>
<path d="M18.6997 21.4995H17.2997V28.2608L22.6239 30.5428L23.1755 29.2562L18.6997 27.3382V21.4995Z" fill="white"/>
<path d="M31.2999 33.3997H32.6999V34.7997H31.2999V33.3997Z" fill="white"/>
<path d="M17.9998 37.5996H19.3998V38.9996H17.9998V37.5996Z" fill="white"/>
<path d="M33.4001 36.2H34.8001V37.6H33.4001V36.2Z" fill="white"/>
</svg>
