<svg width="64" height="64" viewBox="0 0 64 64" fill="none" xmlns="http://www.w3.org/2000/svg">
<rect width="64" height="64" rx="8" fill="#D2D2F8"/>
<path d="M54 24.0839C54 23.0129 53.5715 22.0061 52.7934 21.2487C51.2256 19.7236 48.6984 19.6882 47.0851 21.1414C46.205 20.6552 45.064 20.7762 44.3145 21.5057C43.5661 22.2342 43.441 23.3429 43.9382 24.199L37.4896 30.476V21.0875H41.6176C41.9736 21.0875 42.2621 20.8067 42.2621 20.4602C42.2621 20.1136 41.9736 19.8328 41.6176 19.8328H37.4896V16.6274C37.4896 16.2808 37.2011 16 36.8451 16C36.489 16 36.2005 16.2808 36.2005 16.6274V19.8328H20.9154C20.5595 19.8328 20.2709 20.1136 20.2709 20.4602C20.2709 20.8067 20.5595 21.0875 20.9154 21.0875H23.7281L16.0839 25.3795C16.0761 25.3838 16.0689 25.3888 16.0613 25.3932V21.0875H18.3372C18.6932 21.0875 18.9818 20.8067 18.9818 20.4602C18.9818 20.1136 18.6932 19.8328 18.3372 19.8328H16.0613V16.6276C16.0613 16.2811 15.7728 16.0003 15.4168 16.0003C15.0609 16.0003 14.7723 16.2811 14.7723 16.6276V19.8328H10.6445C10.2886 19.8328 10 20.1136 10 20.4602C10 20.8067 10.2886 21.0875 10.6445 21.0875H14.7723V43.9125H10.6445C10.2886 43.9125 10 44.1933 10 44.5398C10 44.8864 10.2886 45.1672 10.6445 45.1672H14.7723V48.3724C14.7723 48.7189 15.0609 48.9998 15.4168 48.9998C15.7728 48.9998 16.0613 48.7189 16.0613 48.3724V45.1672H32.0729C32.4288 45.1672 32.7174 44.8864 32.7174 44.5398C32.7174 44.1933 32.4289 43.9125 32.0729 43.9125H28.5341L31.2524 42.3858C31.5319 42.6184 31.8784 42.7421 32.2347 42.7421C32.4073 42.7421 32.5819 42.7133 32.7521 42.6543L36.2005 41.4582V43.9125H34.651C34.295 43.9125 34.0065 44.1933 34.0065 44.5398C34.0065 44.8864 34.295 45.1672 34.651 45.1672H36.2005V48.3726C36.2005 48.7192 36.489 49 36.8451 49C37.2011 49 37.4896 48.7192 37.4896 48.3726V45.1672H41.6176C41.9736 45.1672 42.2621 44.8864 42.2621 44.5398C42.2621 44.1933 41.9736 43.9125 41.6176 43.9125H37.4896V41.0111L38.6362 40.6134C38.6571 40.6062 38.6784 40.5974 38.6983 40.5881C38.703 40.5858 38.7077 40.5833 38.7123 40.581C38.7268 40.5738 38.7411 40.5661 38.755 40.5578C38.7612 40.5542 38.7672 40.5505 38.7733 40.5466C38.7863 40.5382 38.7989 40.5295 38.8113 40.5202C38.8162 40.5165 38.8213 40.5131 38.8262 40.5092C38.8428 40.4961 38.8588 40.4822 38.8741 40.4675L38.8756 40.4661L49.7628 29.8687C50.1138 30.0618 50.506 30.159 50.8984 30.159C51.4892 30.159 52.08 29.9401 52.5297 29.5023C53.2792 28.7727 53.4035 27.6621 52.904 26.8053C53.6116 26.0627 54 25.1026 54 24.0839ZM51.882 22.136C52.4166 22.6563 52.7109 23.348 52.7109 24.0838C52.7109 24.74 52.4763 25.3605 52.0464 25.8561L48.0605 21.9763C49.1712 21.0666 50.837 21.1193 51.882 22.136ZM34.7515 40.6287L32.884 38.8109L33.9833 35.8076C34.5519 35.7502 34.9557 35.8224 35.1605 36.0216C35.4066 36.2612 35.4648 36.7797 35.3288 37.521C35.3281 37.5245 35.3281 37.528 35.3275 37.5316C35.3245 37.55 35.3222 37.5686 35.3208 37.5871C35.3203 37.5946 35.3199 37.602 35.3197 37.6095C35.3191 37.6258 35.3192 37.6421 35.3199 37.6584C35.3375 38.0456 35.7014 38.3144 36.0764 38.2489C36.8383 38.1164 37.3709 38.1732 37.617 38.4128C37.8217 38.6122 37.8959 39.0053 37.8369 39.5586L34.7515 40.6287ZM38.5286 37.5256C38.2649 37.2689 37.9275 37.0948 37.5204 37.0031L43.2687 31.4077C43.5204 31.1626 43.5204 30.7654 43.2687 30.5204C43.0169 30.2755 42.6089 30.2755 42.3572 30.5204L36.609 36.1156C36.5148 35.7191 36.3359 35.3911 36.0721 35.1344C35.8083 34.8777 35.4705 34.7043 35.0631 34.6127L44.7901 25.1444L46.3351 26.6483L44.4615 28.4721C44.2097 28.7172 44.2097 29.1143 44.4615 29.3593C44.7133 29.6044 45.1213 29.6043 45.373 29.3593L47.2466 27.5356L48.7916 29.0395L39.0645 38.5077C38.9704 38.1111 38.7923 37.7823 38.5286 37.5256ZM36.2005 21.0875V25.3976C36.1945 25.3942 36.1889 25.3903 36.1828 25.3869L28.5395 21.0875H36.2005ZM16.0637 27.5839C16.0644 27.1249 16.3194 26.6964 16.7287 26.466L25.4729 21.5566C25.8818 21.327 26.3895 21.3273 26.798 21.5572L35.5376 26.4732C35.9466 26.7035 36.2006 27.132 36.2006 27.5915V31.7308L33.3588 34.497V29.9103C33.3592 29.0036 32.859 28.1588 32.0535 27.7056L27.4415 25.1116C26.6354 24.6579 25.6334 24.6577 24.8268 25.1105L20.2128 27.7012C19.4056 28.1544 18.904 28.9988 18.9036 29.9051V35.0897C18.9032 35.9964 19.4034 36.8412 20.2089 37.2944L24.8209 39.8884C25.2243 40.1155 25.6766 40.2289 26.1291 40.2289C26.5808 40.2289 27.0326 40.1156 27.4356 39.8894L32.0496 37.2988C32.0582 37.294 32.0662 37.2885 32.0747 37.2836L30.8033 40.757C30.7452 40.9158 30.7165 41.0785 30.7141 41.2396L26.7903 43.4432C26.3807 43.6727 25.8725 43.6728 25.4639 43.4428L16.7242 38.5269C16.3162 38.2972 16.0632 37.869 16.0637 37.4086V27.5839ZM32.0697 29.91V35.0947C32.0695 35.5538 31.815 35.9819 31.4054 36.2118L26.7914 38.8026C26.3824 39.0321 25.8745 39.032 25.4658 38.802L20.8539 36.2079C20.4457 35.9783 20.1924 35.55 20.1925 35.0899V29.9052C20.1927 29.4461 20.4472 29.018 20.8568 28.7881L25.4708 26.1973C25.6752 26.0827 25.9041 26.0253 26.1332 26.0253C26.3626 26.0253 26.592 26.0828 26.7965 26.1978L31.4084 28.7919C31.8164 29.0216 32.0699 29.4498 32.0697 29.91ZM16.0613 43.9125V39.6025C16.0674 39.606 16.0729 39.6098 16.079 39.6132L23.7222 43.9125L16.0613 43.9125ZM32.3195 41.4723C32.1973 41.5146 32.1124 41.4566 32.0729 41.4182C32.0334 41.3798 31.9737 41.2975 32.0174 41.1782L32.4049 40.1193L33.4072 41.0949L32.3195 41.4723ZM51.6182 28.6151C51.2214 29.0015 50.5755 29.0015 50.1787 28.6151L50.1589 28.5959L45.2459 23.8136L45.2261 23.7943C44.8293 23.408 44.8293 22.7795 45.2261 22.3932C45.4246 22.1999 45.6852 22.1034 45.9459 22.1034C46.2065 22.1034 46.4671 22.1999 46.6656 22.3932L51.6182 27.214C52.015 27.6003 52.015 28.2287 51.6182 28.6151Z" fill="#4C4CE6"/>
</svg>
