<svg width="44" height="33" viewBox="0 0 44 33" fill="none" xmlns="http://www.w3.org/2000/svg">
<path d="M44 8.08391C44 7.01293 43.5715 6.00611 42.7934 5.24866C41.2256 3.72362 38.6984 3.68816 37.0851 5.14142C36.205 4.65516 35.064 4.7762 34.3145 5.50572C33.5661 6.23423 33.441 7.34285 33.9382 8.19902L27.4896 14.476V5.08755H31.6176C31.9736 5.08755 32.2621 4.80673 32.2621 4.46017C32.2621 4.1136 31.9736 3.83279 31.6176 3.83279H27.4896V0.62738C27.4896 0.280815 27.2011 0 26.8451 0C26.489 0 26.2005 0.280815 26.2005 0.62738V3.83279H10.9154C10.5595 3.83279 10.2709 4.1136 10.2709 4.46017C10.2709 4.80673 10.5595 5.08755 10.9154 5.08755H13.7281L6.08386 9.37949C6.07613 9.38384 6.06891 9.38878 6.06126 9.39321V5.08755H8.33723C8.69318 5.08755 8.98176 4.80673 8.98176 4.46017C8.98176 4.1136 8.69318 3.83279 8.33723 3.83279H6.06134V0.62763C6.06134 0.281066 5.77277 0.000251133 5.41681 0.000251133C5.06086 0.000251133 4.77228 0.281066 4.77228 0.62763V3.83279H0.644531C0.288578 3.83279 0 4.1136 0 4.46017C0 4.80673 0.288578 5.08755 0.644531 5.08755H4.77228V27.9125H0.644531C0.288578 27.9125 0 28.1933 0 28.5398C0 28.8864 0.288578 29.1672 0.644531 29.1672H4.77228V32.3724C4.77228 32.7189 5.06086 32.9998 5.41681 32.9998C5.77277 32.9998 6.06134 32.7189 6.06134 32.3724V29.1672H22.0729C22.4288 29.1672 22.7174 28.8864 22.7174 28.5398C22.7174 28.1933 22.4289 27.9125 22.0729 27.9125H18.5341L21.2524 26.3858C21.5319 26.6184 21.8784 26.7421 22.2347 26.7421C22.4073 26.7421 22.5819 26.7133 22.7521 26.6543L26.2005 25.4582V27.9125H24.651C24.295 27.9125 24.0065 28.1933 24.0065 28.5398C24.0065 28.8864 24.295 29.1672 24.651 29.1672H26.2005V32.3726C26.2005 32.7192 26.489 33 26.8451 33C27.2011 33 27.4896 32.7192 27.4896 32.3726V29.1672H31.6176C31.9736 29.1672 32.2621 28.8864 32.2621 28.5398C32.2621 28.1933 31.9736 27.9125 31.6176 27.9125H27.4896V25.0111L28.6362 24.6134C28.6571 24.6062 28.6784 24.5974 28.6983 24.5881C28.703 24.5858 28.7077 24.5833 28.7123 24.581C28.7268 24.5738 28.7411 24.5661 28.755 24.5578C28.7612 24.5542 28.7672 24.5505 28.7733 24.5466C28.7863 24.5382 28.7989 24.5295 28.8113 24.5202C28.8162 24.5165 28.8213 24.5131 28.8262 24.5092C28.8428 24.4961 28.8588 24.4822 28.8741 24.4675L28.8756 24.4661L39.7628 13.8687C40.1138 14.0618 40.506 14.159 40.8984 14.159C41.4892 14.159 42.08 13.9401 42.5297 13.5023C43.2792 12.7727 43.4035 11.6621 42.904 10.8053C43.6116 10.0627 44 9.10261 44 8.08391ZM41.882 6.13602C42.4166 6.65633 42.7109 7.34804 42.7109 8.08383C42.7109 8.73998 42.4763 9.3605 42.0464 9.85605L38.0605 5.97625C39.1712 5.06655 40.837 5.11933 41.882 6.13602ZM24.7515 24.6287L22.884 22.8109L23.9833 19.8076C24.5519 19.7502 24.9557 19.8224 25.1605 20.0216C25.4066 20.2612 25.4648 20.7797 25.3288 21.521C25.3281 21.5245 25.3281 21.528 25.3275 21.5316C25.3245 21.55 25.3222 21.5686 25.3208 21.5871C25.3203 21.5946 25.3199 21.602 25.3197 21.6095C25.3191 21.6258 25.3192 21.6421 25.3199 21.6584C25.3375 22.0456 25.7014 22.3144 26.0764 22.2489C26.8383 22.1164 27.3709 22.1732 27.617 22.4128C27.8217 22.6122 27.8959 23.0053 27.8369 23.5586L24.7515 24.6287ZM28.5286 21.5256C28.2649 21.2689 27.9275 21.0948 27.5204 21.0031L33.2687 15.4077C33.5204 15.1626 33.5204 14.7654 33.2687 14.5204C33.0169 14.2755 32.6089 14.2755 32.3572 14.5204L26.609 20.1156C26.5148 19.7191 26.3359 19.3911 26.0721 19.1344C25.8083 18.8777 25.4705 18.7043 25.0631 18.6127L34.7901 9.14443L36.3351 10.6483L34.4615 12.4721C34.2097 12.7172 34.2097 13.1143 34.4615 13.3593C34.7133 13.6044 35.1213 13.6043 35.373 13.3593L37.2466 11.5356L38.7916 13.0395L29.0645 22.5077C28.9704 22.1111 28.7923 21.7823 28.5286 21.5256ZM26.2005 5.08755V9.39764C26.1945 9.39422 26.1889 9.39028 26.1828 9.38685L18.5395 5.08755H26.2005ZM6.06375 11.5839C6.06435 11.1249 6.31941 10.6964 6.72873 10.466L15.4729 5.55658C15.8818 5.32696 16.3895 5.32729 16.798 5.55725L25.5376 10.4732C25.9466 10.7035 26.2006 11.132 26.2006 11.5915V15.7308L23.3588 18.497V13.9103C23.3592 13.0036 22.859 12.1588 22.0535 11.7056L17.4415 9.11156C16.6354 8.65792 15.6334 8.65767 14.8268 9.11047L10.2128 11.7012C9.4056 12.1544 8.90398 12.9988 8.90355 13.9051V19.0897C8.90321 19.9964 9.40337 20.8412 10.2089 21.2944L14.8209 23.8884C15.2243 24.1155 15.6766 24.2289 16.1291 24.2289C16.5808 24.2289 17.0326 24.1156 17.4356 23.8894L22.0496 21.2988C22.0582 21.294 22.0662 21.2885 22.0747 21.2836L20.8033 24.757C20.7452 24.9158 20.7165 25.0785 20.7141 25.2396L16.7903 27.4432C16.3807 27.6727 15.8725 27.6728 15.4639 27.4428L6.72418 22.5269C6.31623 22.2972 6.06323 21.869 6.06375 21.4086V11.5839ZM22.0697 13.91V19.0947C22.0695 19.5538 21.815 19.9819 21.4054 20.2118L16.7914 22.8026C16.3824 23.0321 15.8745 23.032 15.4658 22.802L10.8539 20.2079C10.4457 19.9783 10.1924 19.55 10.1925 19.0899V13.9052C10.1927 13.4461 10.4472 13.018 10.8568 12.7881L15.4708 10.1973C15.6752 10.0827 15.9041 10.0253 16.1332 10.0253C16.3626 10.0253 16.592 10.0828 16.7965 10.1978L21.4084 12.7919C21.8164 13.0216 22.0699 13.4498 22.0697 13.91ZM6.06134 27.9125V23.6025C6.06736 23.606 6.07295 23.6098 6.07896 23.6132L13.7222 27.9125L6.06134 27.9125ZM22.3195 25.4723C22.1973 25.5146 22.1124 25.4566 22.0729 25.4182C22.0334 25.3798 21.9737 25.2975 22.0174 25.1782L22.4049 24.1193L23.4072 25.0949L22.3195 25.4723ZM41.6182 12.6151C41.2214 13.0015 40.5755 13.0015 40.1787 12.6151L40.1589 12.5959L35.2459 7.81355L35.2261 7.79431C34.8293 7.40801 34.8293 6.77946 35.2261 6.39317C35.4246 6.19993 35.6852 6.1034 35.9459 6.1034C36.2065 6.1034 36.4671 6.19993 36.6656 6.39317L41.6182 11.214C42.015 11.6003 42.015 12.2287 41.6182 12.6151Z" fill="white"/>
</svg>
