<svg width="37" height="31" viewBox="0 0 37 31" fill="none" xmlns="http://www.w3.org/2000/svg">
<path d="M7.6373 5.95494C7.22747 5.73427 6.7318 5.74529 6.33219 5.98398C5.93258 6.22267 5.68787 6.65386 5.68787 7.11933V23.8704C5.68787 24.6008 6.27995 25.1928 7.01032 25.1928C7.74069 25.1928 8.33278 24.6008 8.33278 23.8704V9.3334L17.8446 14.4551C18.236 14.6659 18.7071 14.6659 19.0985 14.4551L28.6104 9.3334V23.8704C28.6104 24.6008 29.2025 25.1928 29.9328 25.1928C30.6632 25.1928 31.2553 24.6008 31.2553 23.8704V7.11933C31.2553 6.65386 31.0106 6.22267 30.611 5.98398C30.2113 5.74529 29.7157 5.73427 29.3058 5.95494L18.4716 11.7888L7.6373 5.95494Z" fill="white"/>
<path fill-rule="evenodd" clip-rule="evenodd" d="M27.8356 0.457404C21.6054 -0.0996521 15.3378 -0.0996521 9.1076 0.457404L6.43212 0.696623C3.5622 0.953228 1.24337 3.14572 0.826548 5.99678C-0.0515578 12.003 -0.0515578 18.105 0.826549 24.1113C1.24337 26.9624 3.5622 29.1548 6.43212 29.4114L9.1076 29.6507C15.3378 30.2077 21.6054 30.2077 27.8356 29.6507L30.5111 29.4114C33.381 29.1548 35.6998 26.9624 36.1166 24.1113C36.9947 18.105 36.9947 12.003 36.1166 5.99678C35.6998 3.14571 33.381 0.953228 30.5111 0.696623L27.8356 0.457404ZM9.34315 3.0918C15.4167 2.54875 21.5265 2.54875 27.6 3.0918L30.2755 3.33102C31.9261 3.4786 33.2598 4.73961 33.4996 6.37939C34.3406 12.1319 34.3406 17.9762 33.4996 23.7287C33.2598 25.3685 31.9261 26.6295 30.2755 26.7771L27.6 27.0163C21.5265 27.5593 15.4167 27.5593 9.34315 27.0163L6.66766 26.7771C5.01703 26.6295 3.68337 25.3685 3.44363 23.7287C2.60262 17.9762 2.60262 12.1319 3.44363 6.37939C3.68337 4.73961 5.01703 3.4786 6.66766 3.33102L9.34315 3.0918Z" fill="white"/>
</svg>
