<svg width="35" height="34" viewBox="0 0 35 34" fill="none" xmlns="http://www.w3.org/2000/svg">
<path d="M24.5721 7.85989C24.5721 6.88606 25.3616 6.09662 26.3354 6.09662C27.3092 6.09662 28.0987 6.88606 28.0987 7.85989C28.0987 8.83371 27.3092 9.62316 26.3354 9.62316C25.3616 9.62316 24.5721 8.83371 24.5721 7.85989Z" fill="white"/>
<path fill-rule="evenodd" clip-rule="evenodd" d="M17.519 8.3007C12.8934 8.3007 9.14351 12.0506 9.14351 16.6762C9.14351 21.3019 12.8934 25.0518 17.519 25.0518C22.1447 25.0518 25.8946 21.3019 25.8946 16.6762C25.8946 12.0506 22.1447 8.3007 17.519 8.3007ZM11.7884 16.6762C11.7884 13.5113 14.3541 10.9456 17.519 10.9456C20.684 10.9456 23.2497 13.5113 23.2497 16.6762C23.2497 19.8412 20.684 22.4069 17.519 22.4069C14.3541 22.4069 11.7884 19.8412 11.7884 16.6762Z" fill="white"/>
<path fill-rule="evenodd" clip-rule="evenodd" d="M26.7908 0.512372C20.6783 -0.170791 14.3599 -0.170791 8.24737 0.512372C4.69957 0.90889 1.83543 3.70369 1.41832 7.26995C0.687382 13.5195 0.687382 19.833 1.41832 26.0825C1.83543 29.6488 4.69957 32.4436 8.24737 32.8401C14.3599 33.5233 20.6783 33.5233 26.7908 32.8401C30.3386 32.4436 33.2027 29.6488 33.6198 26.0825C34.3507 19.833 34.3507 13.5195 33.6198 7.26995C33.2027 3.70369 30.3386 0.90889 26.7908 0.512372ZM8.54114 3.14091C14.4584 2.47957 20.5797 2.47957 26.497 3.14091C28.8423 3.40304 30.7211 5.25379 30.9928 7.5772C31.6999 13.6226 31.6999 19.7298 30.9928 25.7753C30.7211 28.0987 28.8423 29.9494 26.497 30.2116C20.5797 30.8729 14.4584 30.8729 8.54114 30.2116C6.19581 29.9494 4.31707 28.0987 4.04532 25.7753C3.33825 19.7298 3.33825 13.6226 4.04532 7.5772C4.31707 5.25379 6.19581 3.40304 8.54114 3.14091Z" fill="white"/>
</svg>
