<svg width="36" height="33" viewBox="0 0 36 33" fill="none" xmlns="http://www.w3.org/2000/svg">
<path fill-rule="evenodd" clip-rule="evenodd" d="M7.7241 19.7535C7.80128 19.7795 7.87919 19.7979 7.95702 19.8092C8.04189 20.0087 8.15156 20.2667 8.2795 20.5684C8.59173 21.3048 9.01243 22.3008 9.44668 23.3398C10.3323 25.4587 11.2256 27.6429 11.4229 28.2681C11.6671 29.041 11.9252 29.5664 12.2071 29.9252C12.3528 30.1106 12.5213 30.2727 12.7185 30.3953C12.8178 30.457 12.9227 30.5077 13.0322 30.5454C13.037 30.5471 13.0418 30.5487 13.0466 30.5503C13.6109 30.7633 14.1253 30.6746 14.4474 30.5661C14.6198 30.508 14.7592 30.4379 14.858 30.3811C14.9084 30.3521 14.951 30.3251 14.985 30.3023L14.993 30.2968L19.9764 27.1891L25.7326 31.6022C25.8176 31.6674 25.9101 31.722 26.0083 31.7648C26.6998 32.0666 27.3695 32.1718 27.9994 32.0858C28.6282 31.9999 29.1276 31.7357 29.4992 31.4383C29.8632 31.1471 30.1099 30.821 30.2636 30.5787C30.342 30.4549 30.4009 30.3455 30.4425 30.2616C30.4634 30.2195 30.4802 30.1832 30.4931 30.154L30.5097 30.1156L30.516 30.1005L30.5186 30.0941L30.5198 30.0911L30.5209 30.0883C30.5512 30.0127 30.5744 29.9345 30.5902 29.8546L35.8452 3.36057C35.862 3.27584 35.8704 3.18966 35.8704 3.10328C35.8704 2.32742 35.5781 1.58966 34.8907 1.14198C34.3032 0.759356 33.6487 0.742886 33.2351 0.774281C32.7889 0.808148 32.3768 0.918295 32.1003 1.00631C31.9564 1.05212 31.8358 1.09631 31.7488 1.13003C31.705 1.14697 31.6692 1.16151 31.6425 1.1726L31.6225 1.18104L2.15167 12.742L2.14785 12.7434C2.12907 12.7502 2.10496 12.7592 2.0763 12.7703C2.01923 12.7926 1.94277 12.8239 1.85346 12.8644C1.67928 12.9433 1.43492 13.0667 1.18417 13.2384C0.783577 13.5127 -0.137714 14.264 0.0174198 15.5042C0.141182 16.4935 0.818948 17.1011 1.23189 17.3932C1.45863 17.5537 1.67404 17.6684 1.83092 17.7431C1.9037 17.7778 2.0548 17.8391 2.12037 17.8658L2.13691 17.8725L7.7241 19.7535ZM32.6538 3.61646L32.6497 3.61825C32.6351 3.62463 32.6203 3.63074 32.6054 3.63659L3.0988 15.2116C3.0834 15.2176 3.06788 15.2234 3.05225 15.2288L3.03583 15.2351C3.01695 15.2424 2.98517 15.2553 2.94528 15.2734C2.92266 15.2836 2.89906 15.2948 2.87499 15.3068C2.90806 15.3255 2.9397 15.3416 2.96782 15.355C2.99482 15.3679 3.01541 15.3767 3.02668 15.3813L8.56798 17.2468C8.66941 17.2809 8.76396 17.3262 8.85075 17.3807L27.1478 6.66976L27.1649 6.65964C27.1783 6.65177 27.1957 6.64164 27.2167 6.62978C27.2584 6.60624 27.3156 6.5749 27.3836 6.54026C27.5106 6.47563 27.7138 6.37969 27.9427 6.30895C28.102 6.2597 28.5719 6.12095 29.0799 6.28389C29.3934 6.38445 29.718 6.60064 29.9292 6.96688C30.034 7.14883 30.0899 7.33161 30.117 7.49893C30.1889 7.76251 30.1775 8.02277 30.1212 8.24747C30 8.7315 29.66 9.10906 29.3505 9.39784C29.0854 9.64543 25.6552 12.9531 22.2712 16.2182C20.5836 17.8465 18.9133 19.4587 17.6648 20.6639L16.8448 21.4555L27.1986 29.3935C27.4361 29.4785 27.5765 29.4741 27.6414 29.4652C27.7188 29.4547 27.7821 29.4249 27.8468 29.3731C27.9192 29.3152 27.9824 29.2371 28.0297 29.1625L28.0317 29.1594L33.1284 3.46333C33.0527 3.48151 32.9762 3.50316 32.9025 3.52662C32.819 3.5532 32.7502 3.57851 32.7045 3.5962C32.6819 3.60496 32.6657 3.6116 32.6568 3.61527L32.6538 3.61646ZM17.7343 25.4702L15.6687 23.8866L15.1682 27.0705L17.7343 25.4702ZM13.7737 20.744L15.8279 18.761C17.0765 17.5557 18.7469 15.9433 20.4347 14.3149L22.1494 12.6605L10.6529 19.3905L10.7146 19.536C11.0279 20.275 11.4505 21.2753 11.887 22.3199C12.2135 23.1009 12.5548 23.9233 12.8657 24.6847L13.3648 21.5101C13.4129 21.204 13.5624 20.939 13.7737 20.744Z" fill="white"/>
</svg>
