<svg width="40" height="40" viewBox="0 0 40 40" fill="none" xmlns="http://www.w3.org/2000/svg">
<circle cx="20" cy="20" r="20" fill="white"/>
<path d="M14.088 25V13.8H16.136V25H14.088ZM21.6988 22.632C21.3148 22.632 20.9574 22.5893 20.6267 22.504L20.0347 23.096C20.2161 23.192 20.4614 23.272 20.7708 23.336C21.0801 23.4 21.5814 23.464 22.2748 23.528C23.3308 23.624 24.0988 23.8747 24.5788 24.28C25.0587 24.6853 25.2987 25.2453 25.2987 25.96C25.2987 26.4293 25.1707 26.872 24.9148 27.288C24.6588 27.7147 24.2641 28.056 23.7308 28.312C23.1974 28.5787 22.5148 28.712 21.6828 28.712C20.5521 28.712 19.6401 28.4987 18.9468 28.072C18.2534 27.656 17.9067 27.0267 17.9067 26.184C17.9067 25.4693 18.2534 24.8507 18.9468 24.328C18.7334 24.232 18.5467 24.1307 18.3867 24.024C18.2374 23.9173 18.1041 23.8053 17.9867 23.688V23.32L19.3788 21.848C18.7601 21.304 18.4507 20.6053 18.4507 19.752C18.4507 19.2187 18.5787 18.7333 18.8347 18.296C19.1014 17.8587 19.4748 17.512 19.9548 17.256C20.4348 17 21.0161 16.872 21.6988 16.872C22.1467 16.872 22.5628 16.936 22.9468 17.064H25.9548V18.312L24.5948 18.408C24.8081 18.8133 24.9148 19.2613 24.9148 19.752C24.9148 20.2853 24.7868 20.7707 24.5308 21.208C24.2748 21.6453 23.9014 21.992 23.4108 22.248C22.9308 22.504 22.3601 22.632 21.6988 22.632ZM21.6988 21.064C22.1148 21.064 22.4561 20.952 22.7228 20.728C23.0001 20.504 23.1388 20.184 23.1388 19.768C23.1388 19.352 23.0001 19.032 22.7228 18.808C22.4561 18.584 22.1148 18.472 21.6988 18.472C21.2614 18.472 20.9094 18.584 20.6428 18.808C20.3761 19.032 20.2428 19.352 20.2428 19.768C20.2428 20.184 20.3761 20.504 20.6428 20.728C20.9094 20.952 21.2614 21.064 21.6988 21.064ZM19.7787 25.976C19.7787 26.3707 19.9601 26.664 20.3228 26.856C20.6961 27.0587 21.1494 27.16 21.6828 27.16C22.1948 27.16 22.6108 27.0533 22.9308 26.84C23.2508 26.6373 23.4108 26.36 23.4108 26.008C23.4108 25.72 23.3041 25.48 23.0908 25.288C22.8881 25.096 22.4774 24.9787 21.8588 24.936C21.4214 24.904 21.0161 24.856 20.6428 24.792C20.3334 24.9627 20.1094 25.1493 19.9708 25.352C19.8427 25.5547 19.7787 25.7627 19.7787 25.976Z" fill="#1919B3"/>
</svg>
