<svg width="40" height="40" viewBox="0 0 40 40" fill="none" xmlns="http://www.w3.org/2000/svg">
<circle cx="20" cy="20" r="20" fill="white"/>
<path d="M13.088 25V13.8H15.136V25H13.088ZM17.3388 25V17.064H19.1467L19.3068 18.408C19.5521 17.9387 19.9041 17.5653 20.3628 17.288C20.8321 17.0107 21.3814 16.872 22.0108 16.872C22.9921 16.872 23.7548 17.1813 24.2987 17.8C24.8427 18.4187 25.1147 19.3253 25.1147 20.52V25H23.0668V20.712C23.0668 20.0293 22.9281 19.5067 22.6508 19.144C22.3734 18.7813 21.9414 18.6 21.3548 18.6C20.7788 18.6 20.3041 18.8027 19.9308 19.208C19.5681 19.6133 19.3867 20.1787 19.3867 20.904V25H17.3388Z" fill="#1919B3"/>
</svg>
