<svg width="47" height="51" viewBox="0 0 47 51" fill="none" xmlns="http://www.w3.org/2000/svg">
<mask id="mask0_238_1323" style="mask-type:alpha" maskUnits="userSpaceOnUse" x="0" y="0" width="47" height="51">
<path d="M40.8777 41.8021C44.0986 41.8021 46.7096 39.1911 46.7096 35.9703C46.7096 32.7495 44.0986 30.1385 40.8777 30.1385C37.6569 30.1385 35.0459 32.7495 35.0459 35.9703C35.0459 39.1911 37.6569 41.8021 40.8777 41.8021Z" fill="#01EEB7"/>
<path d="M5.83183 41.1107C9.05266 41.1107 11.6637 38.4997 11.6637 35.2788C11.6637 32.058 9.05266 29.447 5.83183 29.447C2.611 29.447 0 32.058 0 35.2788C0 38.4997 2.611 41.1107 5.83183 41.1107Z" fill="#01EEB7"/>
<path d="M23.3213 11.6637C26.5422 11.6637 29.1532 9.05266 29.1532 5.83183C29.1532 2.611 26.5422 0 23.3213 0C20.1005 0 17.4895 2.611 17.4895 5.83183C17.4895 9.05266 20.1005 11.6637 23.3213 11.6637Z" fill="#01EEB7"/>
<path d="M46.3811 15.5265C46.3822 14.3188 46.0083 13.1406 45.3109 12.1547C44.6135 11.1687 43.6271 10.4237 42.4881 10.0225C41.349 9.62132 40.1135 9.58378 38.9521 9.91506C37.7908 10.2463 36.761 10.9301 36.005 11.8719C35.7354 12.4186 35.4321 12.9481 35.097 13.4574C33.7974 15.4182 32.0246 17.02 29.9424 18.1148C27.8603 19.2096 25.5359 19.7622 23.1838 19.7216C20.8317 19.6809 18.5278 19.0483 16.4847 17.8821C14.4416 16.716 12.7253 15.0539 11.4942 13.0493C11.2902 12.7289 11.1106 12.4004 10.9412 12.0637C10.3835 11.264 9.63419 10.6168 8.76178 10.1814C7.88937 9.74608 6.92173 9.5364 5.94736 9.57158C4.97299 9.60675 4.02297 9.88566 3.18423 10.3828C2.34548 10.8799 1.64477 11.5794 1.14616 12.4173C0.64756 13.2552 0.366988 14.2047 0.330103 15.179C0.293218 16.1533 0.501184 17.1213 0.935013 17.9945C1.36884 18.8677 2.01467 19.6181 2.81343 20.1772C3.6122 20.7364 4.5384 21.0863 5.50732 21.1951C5.76851 21.1787 6.03174 21.1726 6.29905 21.1726C6.5031 21.1726 6.69083 21.1726 6.88672 21.1869C9.27286 21.2893 11.5931 22.0004 13.6269 23.2526C15.6606 24.5048 17.3402 26.2564 18.5059 28.341C19.6716 30.4255 20.2846 32.7736 20.2867 35.1619C20.2888 37.5503 19.6798 39.8994 18.5177 41.986C18.4239 42.1533 18.3279 42.3166 18.2259 42.4798C17.7712 43.3539 17.5455 44.3289 17.5698 45.3139C17.5941 46.2988 17.8676 47.2616 18.3648 48.1122C18.862 48.9628 19.5666 49.6735 20.413 50.1779C21.2593 50.6824 22.2197 50.9641 23.2044 50.9968C24.1891 51.0295 25.166 50.8121 26.0439 50.3649C26.9218 49.9176 27.6721 49.2552 28.2246 48.4395C28.7771 47.6237 29.1139 46.6812 29.2035 45.7001C29.293 44.7189 29.1324 43.731 28.7367 42.8287C28.5047 42.4732 28.2908 42.1061 28.096 41.7289C27.0197 39.6527 26.4804 37.34 26.5275 35.0019C26.5746 32.6638 27.2064 30.3748 28.3653 28.3436C29.5243 26.3124 31.1734 24.6037 33.1623 23.3736C35.1512 22.1435 37.4165 21.431 39.7515 21.3012C39.9045 21.291 40.0555 21.2848 40.2065 21.2828C40.3126 21.2828 40.4105 21.2828 40.5228 21.2828C40.7085 21.2828 40.8942 21.2828 41.0778 21.295C41.1554 21.295 41.2288 21.295 41.3064 21.3073C42.7102 21.1248 43.9996 20.4374 44.9335 19.3735C45.8674 18.3097 46.382 16.9421 46.3811 15.5265Z" fill="#01EEB7"/>
</mask>
<g mask="url(#mask0_238_1323)">
<rect width="46.7281" height="51.0132" fill="white"/>
</g>
</svg>
