<svg width="24" height="25" viewBox="0 0 24 25" fill="none" xmlns="http://www.w3.org/2000/svg">
<path d="M21.707 21.1685L17.168 16.6295C18.5148 14.922 19.1584 12.7643 18.9669 10.5979C18.7755 8.43157 17.7635 6.42023 16.138 4.97538C14.5125 3.53053 12.3964 2.76137 10.2225 2.82526C8.04868 2.88915 5.98137 3.78126 4.44355 5.31908C2.90573 6.85691 2.01362 8.92421 1.94973 11.0981C1.88584 13.2719 2.65499 15.3881 4.09984 17.0136C5.5447 18.639 7.55604 19.651 9.72241 19.8425C11.8888 20.0339 14.0464 19.3904 15.754 18.0435L20.293 22.5825L21.707 21.1685ZM10.5 17.8755C9.21438 17.8755 7.95767 17.4943 6.88875 16.78C5.81983 16.0658 4.98671 15.0506 4.49474 13.8629C4.00277 12.6752 3.87405 11.3683 4.12485 10.1074C4.37565 8.84652 4.99472 7.68834 5.90376 6.77929C6.8128 5.87025 7.97099 5.25119 9.23187 5.00038C10.4927 4.74958 11.7997 4.8783 12.9874 5.37027C14.1751 5.86224 15.1903 6.69536 15.9045 7.76428C16.6187 8.8332 17 10.0899 17 11.3755C16.9978 13.0987 16.3123 14.7508 15.0938 15.9693C13.8753 17.1879 12.2232 17.8734 10.5 17.8755Z" fill="white"/>
</svg>
